<svg id="Layer" height="512" viewBox="0 0 24 24" width="512" xmlns="http://www.w3.org/2000/svg"><path id="video-plus" d="m22 7.56v8.88a.753.753 0 0 1 -1.224.587l-2.164-1.737a.3.3 0 0 1 -.112-.234v-6.112a.3.3 0 0 1 .112-.234l2.164-1.737a.753.753 0 0 1 1.224.587zm-5 .44v8a2.652 2.652 0 0 1 -3 3h-9a2.652 2.652 0 0 1 -3-3v-8a2.652 2.652 0 0 1 3-3h9a2.652 2.652 0 0 1 3 3zm-4.25 4a.75.75 0 0 0 -.75-.75h-1.75v-1.75a.75.75 0 0 0 -1.5 0v1.75h-1.75a.75.75 0 0 0 0 1.5h1.75v1.75a.75.75 0 0 0 1.5 0v-1.75h1.75a.75.75 0 0 0 .75-.75z" fill="rgb(0,0,0)"/></svg>