<svg height="512" viewBox="0 0 128 128" width="512" xmlns="http://www.w3.org/2000/svg"><g id="Glyph"><g id="Glyph-2" data-name="Glyph"><path d="m64 56.5a2.7 2.7 0 0 1 2.01.9 4.5 4.5 0 0 0 6.71-6.01 11.706 11.706 0 0 0 -20.42 7.81v9.6a11.7 11.7 0 1 0 23.4 0v-3.3a6 6 0 0 0 -6-6h-3.3a4.5 4.5 0 0 0 0 9h.3a2.735 2.735 0 0 1 -2.7 3 2.7 2.7 0 0 1 -2.7-2.7v-9.6a2.7 2.7 0 0 1 2.7-2.7z"/><path d="m44.2 80.5a4.507 4.507 0 0 0 4.5-4.5v-16.8a11.7 11.7 0 0 0 -23.4 0v16.8a4.5 4.5 0 1 0 9 0v-5.1h5.4v5.1a4.507 4.507 0 0 0 4.5 4.5zm-9.9-18.6v-2.7a2.7 2.7 0 0 1 5.4 0v2.7z"/><path d="m79.3 56.8v14.4a9.308 9.308 0 0 0 9.3 9.3h9.6a4.5 4.5 0 0 0 0-9h-9.6a.308.308 0 0 1 -.3-.3v-2.7h9.9a4.5 4.5 0 0 0 0-9h-9.9v-2.7a.308.308 0 0 1 .3-.3h9.6a4.5 4.5 0 0 0 0-9h-9.6a9.308 9.308 0 0 0 -9.3 9.3z"/><path d="m64.08 128c33.27.13 61.57-26.26 63.76-59.44a63.851 63.851 0 0 0 -2.68-23.45 4.534 4.534 0 0 0 -5.85-2.89l-4.78 1.74a4.51 4.51 0 0 0 -2.76 5.54 49.854 49.854 0 0 1 2.14 14.89c-.2 26.65-22.04 48.56-48.67 49.51-28.11 1-52.6-23.94-51.11-52.04 1.43-26.69 23.83-48.15 50.57-47.77a49.9 49.9 0 0 1 14.88 2.48 4.482 4.482 0 0 0 5.62-2.69l1.78-4.76a4.519 4.519 0 0 0 -2.78-5.85 63.995 63.995 0 1 0 -20.12 124.73z"/><path d="m95 29h4v4a4.507 4.507 0 0 0 4.5 4.5h3a4.507 4.507 0 0 0 4.5-4.5v-4h4a4.507 4.507 0 0 0 4.5-4.5v-3a4.507 4.507 0 0 0 -4.5-4.5h-4v-4a4.507 4.507 0 0 0 -4.5-4.5h-3a4.507 4.507 0 0 0 -4.5 4.5v4h-4a4.507 4.507 0 0 0 -4.5 4.5v3a4.507 4.507 0 0 0 4.5 4.5z"/></g></g></svg>