<svg width="18" height="21" viewBox="0 0 18 21" fill="none" xmlns="http://www.w3.org/2000/svg">
<path fill-rule="evenodd" clip-rule="evenodd" d="M3.77381 5.4L4.58581 19.048C4.59804 19.2514 4.68742 19.4425 4.83572 19.5822C4.98401 19.722 5.18005 19.7999 5.38381 19.8H12.6158C12.8196 19.7999 13.0156 19.722 13.1639 19.5822C13.3122 19.4425 13.4016 19.2514 13.4138 19.048L14.2258 5.4H15.4288L14.6118 19.119C14.5815 19.6279 14.358 20.1059 13.987 20.4555C13.616 20.8051 13.1256 20.9999 12.6158 21H5.38381C4.87406 20.9999 4.38359 20.8051 4.01261 20.4555C3.64163 20.1059 3.41814 19.6279 3.38781 19.119L2.57081 5.4H3.77381ZM6.49981 8H7.69981L8.19981 17H6.99981L6.49981 8ZM10.2998 8H11.4998L10.9998 17H9.79981L10.2998 8ZM1.45881 1.353L17.2158 4.131C17.2806 4.14235 17.3425 4.16637 17.398 4.20168C17.4535 4.23699 17.5014 4.28289 17.5391 4.33677C17.5769 4.39065 17.6036 4.45144 17.6178 4.51565C17.6319 4.57987 17.6333 4.64625 17.6218 4.711L17.4998 5.4L0.757812 2.448L0.879813 1.758C0.902977 1.62756 0.976962 1.51165 1.08552 1.43571C1.19408 1.35978 1.32834 1.33003 1.45881 1.353ZM7.74881 0.228004L11.6888 0.923004C11.7536 0.934352 11.8155 0.958369 11.871 0.993678C11.9265 1.02899 11.9744 1.07489 12.0121 1.12877C12.0499 1.18265 12.0766 1.24344 12.0908 1.30765C12.1049 1.37187 12.1063 1.43825 12.0948 1.503L11.9728 2.192L7.04881 1.323L7.17081 0.634004C7.18217 0.569325 7.20615 0.507517 7.24139 0.452109C7.27664 0.3967 7.32245 0.348777 7.37622 0.311076C7.42998 0.273374 7.49065 0.246633 7.55475 0.23238C7.61885 0.218126 7.68514 0.216639 7.74981 0.228004H7.74881Z" fill="black"/>
</svg>
