<svg id="Layer_1" height="512" viewBox="0 0 128 128" width="512" xmlns="http://www.w3.org/2000/svg"><g><path d="m101.245 123.338c-2.852 0-5.624-1.011-7.806-2.846l-26.926-22.643-26.928 22.644c-2.181 1.834-4.953 2.845-7.804 2.845-1.781 0-3.502-.381-5.119-1.133-4.256-1.981-7.006-6.296-7.006-10.992v-85.193c0-5.704 2.222-11.067 6.255-15.102 4.034-4.034 9.397-6.256 15.101-6.256h51c5.705 0 11.068 2.222 15.102 6.255 4.034 4.034 6.255 9.397 6.255 15.102v85.193c0 4.696-2.75 9.011-7.007 10.992-1.614.753-3.336 1.134-5.117 1.134zm-34.732-34.716c.915 0 1.831.313 2.575.938l29.501 24.809c1.206 1.014 2.966 1.248 4.397.583 1.449-.674 2.384-2.142 2.384-3.74v-85.192c0-3.568-1.389-6.922-3.912-9.445s-5.877-3.913-9.445-3.913h-51c-3.567 0-6.921 1.39-9.444 3.913s-3.913 5.877-3.913 9.445v85.193c0 1.598.935 3.065 2.383 3.739 1.431.667 3.192.431 4.396-.582l29.502-24.81c.745-.625 1.661-.938 2.576-.938z" fill="rgb(0,0,0)"/></g></svg>