<svg width="512" height="512" viewBox="0 0 512 512" fill="none" xmlns="http://www.w3.org/2000/svg">
<path d="M404.98 493.352C393.572 493.352 382.484 489.308 373.756 481.968L266.052 391.396L158.34 481.972C149.616 489.308 138.528 493.352 127.124 493.352C120 493.352 113.116 491.828 106.648 488.82C89.624 480.896 78.624 463.636 78.624 444.852V104.08C78.624 81.2644 87.512 59.8124 103.644 43.6724C119.78 27.5364 141.232 18.6484 164.048 18.6484H368.048C390.868 18.6484 412.32 27.5364 428.456 43.6684C444.592 59.8044 453.476 81.2564 453.476 104.076V444.848C453.476 463.632 442.476 480.892 425.448 488.816C418.992 491.828 412.104 493.352 404.98 493.352Z" fill="black"/>
</svg>
