<?xml version="1.0" encoding="UTF-8"?>
<svg xmlns="http://www.w3.org/2000/svg" xmlns:xlink="http://www.w3.org/1999/xlink" version="1.1" id="Capa_1" x="0px" y="0px" viewBox="0 0 511 511" style="enable-background:new 0 0 511 511;" xml:space="preserve" width="512" height="512">
<g>
	
		<line style="fill:none;stroke:#000000;stroke-width:30;stroke-linecap:round;stroke-linejoin:round;stroke-miterlimit:10;" x1="375" y1="319.5" x2="423" y2="319.5"/>
	
		<line style="fill:none;stroke:#000000;stroke-width:30;stroke-linecap:round;stroke-linejoin:round;stroke-miterlimit:10;" x1="399" y1="335.5" x2="399" y2="287.5"/>
	<path style="fill:none;stroke:#000000;stroke-width:30;stroke-linecap:round;stroke-linejoin:round;stroke-miterlimit:10;" d="&#10;&#9;&#9;M367,367.5c17.673,0,32-14.327,32-32c0,17.673,14.327,32,32,32"/>
	<path style="fill:none;stroke:#000000;stroke-width:30;stroke-linecap:round;stroke-linejoin:round;stroke-miterlimit:10;" d="&#10;&#9;&#9;M464,87.5H335c-17.673,0-32,14.327-32,32v112l-24,24l24,24v112c0,17.673,14.327,32,32,32h129c17.673,0,32-14.327,32-32v-272&#10;&#9;&#9;C496,101.827,481.673,87.5,464,87.5z"/>
	
		<polyline style="fill:none;stroke:#000000;stroke-width:30;stroke-linecap:round;stroke-linejoin:round;stroke-miterlimit:10;" points="&#10;&#9;&#9;367,223.5 399,143.5 431,223.5 &#9;"/>
	
		<line style="fill:none;stroke:#000000;stroke-width:30;stroke-linecap:round;stroke-linejoin:round;stroke-miterlimit:10;" x1="374" y1="207.5" x2="422" y2="207.5"/>
	<path style="fill:none;stroke:#000000;stroke-width:30;stroke-linecap:round;stroke-linejoin:round;stroke-miterlimit:10;" d="&#10;&#9;&#9;M159,79.5h-16c-41.048,0-128,16-128,176c0,168,86.952,176,128,176h16"/>
	<path style="fill:none;stroke:#000000;stroke-width:30;stroke-linecap:round;stroke-linejoin:round;stroke-miterlimit:10;" d="&#10;&#9;&#9;M159,351.5c0,0,0,0-16,0c-50.093,0-56-48-56-96s5.907-96,56-96c16,0,16,0,16,0"/>
	
		<polygon style="fill:none;stroke:#000000;stroke-width:30;stroke-linecap:round;stroke-linejoin:round;stroke-miterlimit:10;" points="&#10;&#9;&#9;215,431.5 215,335.5 159,335.5 159,351.5 159,431.5 &#9;"/>
	
		<rect x="159" y="79.5" style="fill:none;stroke:#000000;stroke-width:30;stroke-linecap:round;stroke-linejoin:round;stroke-miterlimit:10;" width="56" height="96"/>
</g>















</svg>
