<svg width="24" height="24" viewBox="0 0 24 24" fill="none" xmlns="http://www.w3.org/2000/svg">
<path d="M6.78839 2.26703L8.21125 1.83846C8.85895 1.64305 9.55564 1.69003 10.1712 1.97062C10.7868 2.25122 11.2793 2.74625 11.5567 3.36332L12.4421 5.33303C12.6807 5.86365 12.7472 6.45566 12.6322 7.02598C12.5172 7.5963 12.2265 8.11631 11.801 8.51303L10.2538 9.9556C10.2353 9.97399 10.2197 9.99509 10.2075 10.0182C10.0455 10.349 10.2915 11.2327 11.0621 12.5682C11.9313 14.0733 12.6024 14.6682 12.9135 14.5765L14.9441 13.955C15.5002 13.7852 16.0955 13.7937 16.6466 13.9792C17.1976 14.1647 17.6768 14.518 18.017 14.9896L19.2753 16.7322C19.6703 17.2793 19.8533 17.9513 19.7902 18.6232C19.7272 19.2951 19.4223 19.9212 18.9324 20.3853L17.8498 21.4096C17.4734 21.7662 17.0162 22.0264 16.5174 22.1681C16.0186 22.3097 15.4929 22.3286 14.9853 22.223C11.9707 21.5956 9.26982 19.1682 6.85954 14.9939C4.44839 10.817 3.69668 7.25989 4.66525 4.33446C4.82739 3.84469 5.10503 3.40115 5.47472 3.0413C5.84441 2.68146 6.29443 2.41589 6.78839 2.26703ZM7.16125 3.49789C6.86486 3.58716 6.59431 3.74647 6.37247 3.96234C6.15062 4.17822 5.984 4.44432 5.88668 4.73817C5.05182 7.25903 5.72811 10.4613 7.97382 14.351C10.2178 18.2382 12.6504 20.4239 15.2484 20.9639C15.553 21.0271 15.8684 21.0157 16.1677 20.9306C16.4669 20.8455 16.7412 20.6893 16.967 20.4753L18.0487 19.4519C18.3126 19.2021 18.4768 18.8649 18.5109 18.5031C18.5449 18.1413 18.4465 17.7794 18.2338 17.4847L16.9755 15.7413C16.7924 15.4874 16.5344 15.2972 16.2378 15.1973C15.9411 15.0974 15.6207 15.0928 15.3213 15.1842L13.2855 15.8073C12.1593 16.1425 11.0998 15.2039 9.94954 13.2102C8.97497 11.5233 8.63725 10.3045 9.05382 9.45332C9.13497 9.2876 9.24297 9.1416 9.37782 9.01532L10.925 7.57274C11.1542 7.35913 11.3108 7.07909 11.3727 6.77194C11.4347 6.46479 11.3989 6.14595 11.2704 5.86017L10.3841 3.89132C10.2348 3.55897 9.96954 3.29234 9.63798 3.14123C9.30643 2.99013 8.93121 2.96487 8.58239 3.07017L7.16125 3.49789Z" fill="black"/>
</svg>
