<svg width="40" height="40" viewBox="0 0 40 40" fill="none" xmlns="http://www.w3.org/2000/svg">
<path d="M20 26.667C22.7614 26.667 25 24.4284 25 21.667C25 18.9056 22.7614 16.667 20 16.667C17.2386 16.667 15 18.9056 15 21.667C15 24.4284 17.2386 26.667 20 26.667Z" stroke="white" stroke-width="1.5"/>
<path d="M16.2967 35.0001H23.7034C28.905 35.0001 31.5067 35.0001 33.375 33.7751C34.1814 33.247 34.8758 32.5651 35.4184 31.7684C36.6667 29.9351 36.6667 27.3801 36.6667 22.2734C36.6667 17.1667 36.6667 14.6117 35.4184 12.7784C34.8758 11.9817 34.1814 11.2998 33.375 10.7717C32.175 9.98341 30.6717 9.70174 28.37 9.60174C27.2717 9.60174 26.3267 8.78508 26.1117 7.72674C25.9474 6.95153 25.5205 6.2568 24.9031 5.76C24.2858 5.26319 23.5158 4.99476 22.7234 5.00008H17.2767C15.63 5.00008 14.2117 6.14174 13.8884 7.72674C13.6734 8.78508 12.7284 9.60174 11.63 9.60174C9.33004 9.70174 7.82671 9.98508 6.62504 10.7717C5.81927 11.3 5.1255 11.9819 4.58337 12.7784C3.33337 14.6117 3.33337 17.1651 3.33337 22.2734C3.33337 27.3817 3.33337 29.9334 4.58171 31.7684C5.12171 32.5617 5.81504 33.2434 6.62504 33.7751C8.49337 35.0001 11.095 35.0001 16.2967 35.0001Z" stroke="white" stroke-width="1.5"/>
<path d="M31.6667 16.667H30" stroke="white" stroke-width="1.5" stroke-linecap="round"/>
</svg>
