<svg width="30" height="30" viewBox="0 0 30 30" fill="none" xmlns="http://www.w3.org/2000/svg">
<path d="M1.875 15C1.875 7.75125 7.75125 1.875 15 1.875C22.2487 1.875 28.125 7.75125 28.125 15C28.125 22.2488 22.2487 28.125 15 28.125C12.78 28.125 10.6856 27.5728 8.85 26.5978L3.6675 28.0716C3.42663 28.1398 3.17191 28.1426 2.92964 28.0795C2.68736 28.0164 2.46632 27.8898 2.28934 27.7127C2.11237 27.5356 1.98587 27.3145 1.92292 27.0722C1.85996 26.8299 1.86284 26.5752 1.93125 26.3344L3.405 21.1528C2.39769 19.2586 1.87223 17.1454 1.875 15ZM9.375 12.1875C9.375 12.4361 9.47377 12.6746 9.64958 12.8504C9.8254 13.0262 10.0639 13.125 10.3125 13.125H19.6875C19.9361 13.125 20.1746 13.0262 20.3504 12.8504C20.5262 12.6746 20.625 12.4361 20.625 12.1875C20.625 11.9389 20.5262 11.7004 20.3504 11.5246C20.1746 11.3488 19.9361 11.25 19.6875 11.25H10.3125C10.0639 11.25 9.8254 11.3488 9.64958 11.5246C9.47377 11.7004 9.375 11.9389 9.375 12.1875ZM10.3125 16.875C10.0639 16.875 9.8254 16.9738 9.64958 17.1496C9.47377 17.3254 9.375 17.5639 9.375 17.8125C9.375 18.0611 9.47377 18.2996 9.64958 18.4754C9.8254 18.6512 10.0639 18.75 10.3125 18.75H15.9375C16.1861 18.75 16.4246 18.6512 16.6004 18.4754C16.7762 18.2996 16.875 18.0611 16.875 17.8125C16.875 17.5639 16.7762 17.3254 16.6004 17.1496C16.4246 16.9738 16.1861 16.875 15.9375 16.875H10.3125Z" fill="#008BCB"/>
</svg>
