<svg width="30" height="30" viewBox="0 0 30 30" fill="none" xmlns="http://www.w3.org/2000/svg">
<path d="M9.71676 24.9351C11.3428 25.8013 13.1576 26.2529 15 26.2497C21.2132 26.2497 26.25 21.2129 26.25 14.9997C26.25 8.78651 21.2132 3.74972 15 3.74972C8.78676 3.74972 3.74998 8.78651 3.74998 14.9997C3.74998 16.9122 4.22676 18.7111 5.06676 20.2861C5.26275 20.6531 5.30884 21.0817 5.19534 21.4819L3.87319 26.1286L8.52105 24.8076C8.9211 24.6937 9.34971 24.7395 9.71676 24.9351ZM15 27.8569C12.8937 27.8599 10.8192 27.3432 8.96034 26.3526L3.84962 27.8065C3.6202 27.8717 3.37754 27.8744 3.14672 27.8144C2.91589 27.7544 2.70527 27.6339 2.53663 27.4652C2.36799 27.2966 2.24744 27.086 2.18744 26.8551C2.12744 26.6243 2.13016 26.3816 2.19534 26.1522L3.64819 21.0415C2.65689 19.1821 2.13982 17.1068 2.14284 14.9997C2.14284 7.89936 7.89962 2.14258 15 2.14258C22.1003 2.14258 27.8571 7.89936 27.8571 14.9997C27.8571 22.1001 22.1003 27.8569 15 27.8569ZM10.1785 12.589C10.1785 12.3759 10.2632 12.1715 10.4139 12.0208C10.5646 11.8701 10.769 11.7854 10.9821 11.7854H19.0178C19.231 11.7854 19.4353 11.8701 19.586 12.0208C19.7367 12.1715 19.8214 12.3759 19.8214 12.589C19.8214 12.8021 19.7367 13.0065 19.586 13.1572C19.4353 13.3079 19.231 13.3926 19.0178 13.3926H10.9821C10.769 13.3926 10.5646 13.3079 10.4139 13.1572C10.2632 13.0065 10.1785 12.8021 10.1785 12.589ZM10.1785 17.4104C10.1785 17.1973 10.2632 16.9929 10.4139 16.8422C10.5646 16.6915 10.769 16.6069 10.9821 16.6069H15.8035C16.0167 16.6069 16.2211 16.6915 16.3718 16.8422C16.5225 16.9929 16.6071 17.1973 16.6071 17.4104C16.6071 17.6236 16.5225 17.8279 16.3718 17.9786C16.2211 18.1293 16.0167 18.214 15.8035 18.214H10.9821C10.769 18.214 10.5646 18.1293 10.4139 17.9786C10.2632 17.8279 10.1785 17.6236 10.1785 17.4104Z" fill="black"/>
</svg>
