<svg width="39" height="39" viewBox="0 0 39 39" fill="none" xmlns="http://www.w3.org/2000/svg">
<path d="M19.5 34.125C22.3926 34.125 25.2201 33.2673 27.6252 31.6602C30.0303 30.0532 31.9048 27.7691 33.0117 25.0968C34.1187 22.4244 34.4083 19.4838 33.844 16.6468C33.2797 13.8098 31.8868 11.2039 29.8414 9.15857C27.7961 7.11323 25.1902 5.72033 22.3532 5.15602C19.5162 4.59171 16.5756 4.88134 13.9033 5.98827C11.2309 7.0952 8.94677 8.96972 7.33976 11.3748C5.73274 13.7799 4.875 16.6075 4.875 19.5C4.875 21.918 5.46 24.1963 6.5 26.2064L4.875 34.125L12.7936 32.5C14.8021 33.5384 17.0836 34.125 19.5 34.125Z" stroke="white" stroke-linecap="round" stroke-linejoin="round"/>
</svg>
