<svg width="27" height="29" viewBox="0 0 27 29" fill="none" xmlns="http://www.w3.org/2000/svg">
<path d="M20.6042 1.58325H8.33341C5.47994 1.58325 3.16675 3.89645 3.16675 6.74992V22.2499C3.16675 25.1034 5.47994 27.4166 8.33341 27.4166H20.6042C23.4577 27.4166 25.7709 25.1034 25.7709 22.2499V6.74992C25.7709 3.89645 23.4577 1.58325 20.6042 1.58325Z" stroke="white" stroke-width="1.5" stroke-linecap="round" stroke-linejoin="round"/>
<path d="M11.6788 16.7475C10.8664 17.2926 8.73771 18.4034 10.0345 19.7932C10.6675 20.4727 11.374 20.9583 12.2601 20.9583H17.3234C18.2095 20.9583 18.916 20.4727 19.549 19.7932C20.8458 18.4034 18.7171 17.2926 17.9047 16.7488C16.9863 16.1252 15.9018 15.7918 14.7917 15.7918C13.6817 15.7918 12.5972 16.1252 11.6788 16.7488M4.45841 6.75H1.22925M4.45841 14.5H1.22925M4.45841 22.25H1.22925M17.3751 10.625C17.3751 11.3101 17.1029 11.9672 16.6184 12.4517C16.134 12.9362 15.4769 13.2083 14.7917 13.2083C14.1066 13.2083 13.4495 12.9362 12.9651 12.4517C12.4806 11.9672 12.2084 11.3101 12.2084 10.625C12.2084 9.93986 12.4806 9.28278 12.9651 8.79831C13.4495 8.31384 14.1066 8.04167 14.7917 8.04167C15.4769 8.04167 16.134 8.31384 16.6184 8.79831C17.1029 9.28278 17.3751 9.93986 17.3751 10.625Z" stroke="white" stroke-width="1.5" stroke-linecap="round" stroke-linejoin="round"/>
</svg>
