<svg width="24" height="24" viewBox="0 0 24 24" fill="none" xmlns="http://www.w3.org/2000/svg">
<path d="M12.6919 11.3348C13.0599 10.9421 13.3186 10.4875 13.4679 9.97079C13.6172 9.45412 13.6919 8.92512 13.6919 8.38379C13.6919 7.84246 13.6172 7.31379 13.4679 6.79779C13.3186 6.28179 13.0599 5.82712 12.6919 5.43379C13.4486 5.50312 14.0736 5.81979 14.5669 6.38379C15.0602 6.94846 15.3069 7.61512 15.3069 8.38379C15.3069 9.15246 15.0602 9.81912 14.5669 10.3838C14.0736 10.9485 13.4486 11.2651 12.6919 11.3338M17.6919 18.6148V16.9228C17.6919 16.4328 17.6036 15.9661 17.4269 15.5228C17.2502 15.0795 16.9709 14.7141 16.5889 14.4268C17.2722 14.6368 17.8962 14.9378 18.4609 15.3298C19.0256 15.7211 19.3079 16.2521 19.3079 16.9228V18.6158L17.6919 18.6148ZM19.3079 12.4998V10.4998H17.3079V9.49979H19.3079V7.49979H20.3079V9.49979H22.3079V10.4998H20.3079V12.4998H19.3079ZM8.6919 11.3848C7.86723 11.3848 7.16089 11.0908 6.57289 10.5028C5.98489 9.91479 5.69156 9.20846 5.69289 8.38379C5.69423 7.55912 5.98756 6.85312 6.57289 6.26579C7.15823 5.67846 7.86489 5.38446 8.69289 5.38379C9.52089 5.38312 10.2269 5.67712 10.8109 6.26579C11.3949 6.85446 11.6886 7.56046 11.6919 8.38379C11.6952 9.20712 11.4016 9.91379 10.8109 10.5038C10.2202 11.0938 9.5139 11.3871 8.6919 11.3838M1.69189 18.6158V16.9688C1.69189 16.5561 1.81189 16.1701 2.05189 15.8108C2.29256 15.4508 2.61623 15.1715 3.02289 14.9728C3.96623 14.5201 4.91056 14.1808 5.85589 13.9548C6.80056 13.7281 7.74589 13.6148 8.6919 13.6148C9.6379 13.6148 10.5836 13.7281 11.5289 13.9548C12.4742 14.1815 13.4182 14.5208 14.3609 14.9728C14.7676 15.1715 15.0909 15.4508 15.3309 15.8108C15.5716 16.1701 15.6919 16.5561 15.6919 16.9688V18.6158H1.69189ZM8.6919 10.3848C9.2419 10.3848 9.71289 10.1888 10.1049 9.79679C10.4969 9.40479 10.6926 8.93412 10.6919 8.38479C10.6912 7.83546 10.4956 7.36446 10.1049 6.97179C9.71423 6.57912 9.24323 6.38346 8.6919 6.38479C8.14056 6.38612 7.66989 6.58179 7.27989 6.97179C6.88989 7.36179 6.69389 7.83279 6.69189 8.38479C6.68989 8.93679 6.88589 9.40746 7.27989 9.79679C7.67389 10.1861 8.14456 10.3821 8.6919 10.3848ZM2.69189 17.6148H14.6919V16.9688C14.6919 16.7475 14.6206 16.5391 14.4779 16.3438C14.3346 16.1491 14.1366 15.9845 13.8839 15.8498C13.0612 15.4511 12.2129 15.1458 11.3389 14.9338C10.4649 14.7218 9.58256 14.6158 8.6919 14.6158C7.80123 14.6158 6.91923 14.7218 6.04589 14.9338C5.17256 15.1458 4.32389 15.4511 3.49989 15.8498C3.24723 15.9845 3.04956 16.1491 2.90689 16.3438C2.76423 16.5385 2.69256 16.7468 2.69189 16.9688V17.6148Z" fill="black"/>
</svg>
