<svg width="30" height="30" viewBox="0 0 30 30" fill="none" xmlns="http://www.w3.org/2000/svg">
<g clip-path="url(#clip0_5104_5812)">
<path d="M15 28.125C14.7984 28.125 14.5969 28.0603 14.4281 27.9309C13.9163 27.5362 1.875 18.1838 1.875 10.3125C1.875 6.17719 5.23969 2.8125 9.375 2.8125C13.5103 2.8125 16.875 6.17719 16.875 10.3125C16.875 10.83 16.4559 11.25 15.9375 11.25C15.42 11.25 15 10.83 15 10.3125C15 7.21031 12.4772 4.6875 9.375 4.6875C6.27281 4.6875 3.75 7.21031 3.75 10.3125C3.75 16.3753 12.6347 24.0497 15 25.9866C17.3644 24.0497 26.25 16.3687 26.25 10.3125C26.25 7.21031 23.7272 4.6875 20.625 4.6875C19.7859 4.6875 18.9788 4.8675 18.2259 5.22188C17.7572 5.44313 17.1975 5.24156 16.9781 4.77375C16.7578 4.305 16.9584 3.74719 17.4262 3.52594C18.4312 3.0525 19.5075 2.8125 20.625 2.8125C24.7603 2.8125 28.125 6.17719 28.125 10.3125C28.125 18.1838 16.0838 27.5362 15.5719 27.9309C15.4031 28.0603 15.2016 28.125 15 28.125Z" fill="#909090"/>
</g>
<defs>
<clipPath id="clip0_5104_5812">
<rect width="30" height="30" fill="white"/>
</clipPath>
</defs>
</svg>
