<svg width="24" height="25" viewBox="0 0 24 25" fill="none" xmlns="http://www.w3.org/2000/svg">
<path d="M19.5 12.1471C19.5 11.9482 19.579 11.7574 19.7197 11.6167C19.8603 11.4761 20.0511 11.3971 20.25 11.3971C20.4489 11.3971 20.6397 11.4761 20.7803 11.6167C20.921 11.7574 21 11.9482 21 12.1471V20.3971C21 20.596 20.921 20.7867 20.7803 20.9274C20.6397 21.068 20.4489 21.1471 20.25 21.1471H3.75C3.55109 21.1471 3.36032 21.068 3.21967 20.9274C3.07902 20.7867 3 20.596 3 20.3971V3.89706C3 3.69815 3.07902 3.50739 3.21967 3.36673C3.36032 3.22608 3.55109 3.14706 3.75 3.14706H12C12.1989 3.14706 12.3897 3.22608 12.5303 3.36673C12.671 3.50739 12.75 3.69815 12.75 3.89706C12.75 4.09598 12.671 4.28674 12.5303 4.42739C12.3897 4.56805 12.1989 4.64706 12 4.64706H4.5V19.6471H19.5V12.1471Z" fill="white"/>
<path d="M11.0145 13.1371L12.252 12.9601L19.854 5.35956C19.9256 5.29037 19.9827 5.20761 20.0221 5.11611C20.0614 5.02461 20.082 4.92619 20.0829 4.82661C20.0838 4.72702 20.0648 4.62826 20.0271 4.53609C19.9894 4.44392 19.9337 4.36018 19.8633 4.28976C19.7929 4.21934 19.7091 4.16365 19.6169 4.12594C19.5248 4.08823 19.426 4.06925 19.3264 4.07012C19.2268 4.07099 19.1284 4.09168 19.0369 4.13098C18.9454 4.17029 18.8627 4.22742 18.7935 4.29906L11.19 11.8996L11.013 13.1371H11.0145ZM20.9145 3.23706C21.1236 3.44601 21.2894 3.69411 21.4026 3.96719C21.5158 4.24026 21.574 4.53296 21.574 4.82856C21.574 5.12415 21.5158 5.41685 21.4026 5.68993C21.2894 5.963 21.1236 6.21111 20.9145 6.42006L13.137 14.1976C13.0223 14.3127 12.8733 14.3874 12.7125 14.4106L10.2375 14.7646C10.1221 14.7811 10.0045 14.7706 9.89395 14.7338C9.78339 14.697 9.68293 14.6349 9.60053 14.5525C9.51813 14.4701 9.45607 14.3696 9.41926 14.2591C9.38245 14.1485 9.37191 14.0309 9.38848 13.9156L9.74248 11.4406C9.7652 11.2799 9.83942 11.131 9.95398 11.0161L17.733 3.23856C18.1549 2.81675 18.7271 2.57979 19.3237 2.57979C19.9203 2.57979 20.4925 2.81675 20.9145 3.23856V3.23706Z" fill="white"/>
</svg>
