<svg id="facial_1" height="512" viewBox="0 0 512 512" width="512" xmlns="http://www.w3.org/2000/svg" data-name="facial 1"><path d="m135 55.84c-74.45 0-135 60.57-135 135a135.25 135.25 0 0 0 108.24 132.36v41.86h-17a26.57 26.57 0 0 0 0 53.14h17v11.39a26.57 26.57 0 1 0 53.14 0v-11.39h17.43a26.57 26.57 0 1 0 0-53.14h-17.43v-41.78a135.22 135.22 0 0 0 108.62-132.42c0-74.45-60.53-135.02-135-135.02zm81.88 135a81.88 81.88 0 1 1 -81.88-81.84 82 82 0 0 1 81.9 81.86z"/><path d="m472.52 226.83a134 134 0 0 0 -68.26-36.73v-46.54l1.87 1.87a26.57 26.57 0 0 0 37.58-37.58l-44.29-44.3a30.2 30.2 0 0 0 -42.64 0l-48 48a26.57 26.57 0 1 0 37.57 37.58l4.79-4.79v45.47a135 135 0 1 0 121.4 227.94c52.62-52.62 52.62-138.28-.02-190.92zm-37.58 153.37a81.85 81.85 0 1 1 0-115.79 82 82 0 0 1 0 115.79z"/></svg>