<svg width="25" height="18" viewBox="0 0 25 18" fill="none" xmlns="http://www.w3.org/2000/svg">
<path d="M22.1797 5.0625C22.5312 5.25781 22.8516 5.49609 23.1406 5.77734C23.4297 6.05859 23.6719 6.37109 23.8672 6.71484C24.0625 7.05859 24.2188 7.42188 24.3359 7.80469C24.4531 8.1875 24.5078 8.58594 24.5 9H23C23 8.59375 22.9219 8.20703 22.7656 7.83984C22.6094 7.47266 22.3945 7.15625 22.1211 6.89062C21.8477 6.625 21.5273 6.41016 21.1602 6.24609C20.793 6.08203 20.4062 6 20 6C19.5859 6 19.1992 6.07812 18.8398 6.23438C18.4805 6.39062 18.1641 6.60547 17.8906 6.87891C17.6172 7.15234 17.4023 7.47266 17.2461 7.83984C17.0898 8.20703 17.0078 8.59375 17 9C17 9.71094 16.8398 10.3867 16.5195 11.0273C16.1992 11.668 15.75 12.1992 15.1719 12.6211C15.6797 12.8789 16.1367 13.1953 16.543 13.5703C16.9492 13.9453 17.3008 14.3672 17.5977 14.8359C17.8945 15.3047 18.1172 15.8047 18.2656 16.3359C18.4141 16.8672 18.4922 17.4219 18.5 18H17C17 17.3828 16.8828 16.8008 16.6484 16.2539C16.4141 15.707 16.0898 15.2305 15.6758 14.8242C15.2617 14.418 14.7852 14.0977 14.2461 13.8633C13.707 13.6289 13.125 13.5078 12.5 13.5C11.8828 13.5 11.3008 13.6172 10.7539 13.8516C10.207 14.0859 9.73047 14.4102 9.32422 14.8242C8.91797 15.2383 8.59766 15.7148 8.36328 16.2539C8.12891 16.793 8.00781 17.375 8 18H6.5C6.5 17.4297 6.57812 16.8789 6.73438 16.3477C6.89062 15.8164 7.11328 15.3164 7.40234 14.8477C7.69141 14.3789 8.03906 13.957 8.44531 13.582C8.85156 13.207 9.3125 12.8867 9.82812 12.6211C9.25781 12.1992 8.8125 11.668 8.49219 11.0273C8.17188 10.3867 8.00781 9.71094 8 9C8 8.59375 7.92188 8.20703 7.76562 7.83984C7.60938 7.47266 7.39453 7.15625 7.12109 6.89062C6.84766 6.625 6.52734 6.41016 6.16016 6.24609C5.79297 6.08203 5.40625 6 5 6C4.58594 6 4.19922 6.07812 3.83984 6.23438C3.48047 6.39062 3.16406 6.60547 2.89062 6.87891C2.61719 7.15234 2.40234 7.47266 2.24609 7.83984C2.08984 8.20703 2.00781 8.59375 2 9H0.5C0.5 8.59375 0.554688 8.19922 0.664062 7.81641C0.773438 7.43359 0.925781 7.07031 1.12109 6.72656C1.31641 6.38281 1.5625 6.07031 1.85938 5.78906C2.15625 5.50781 2.47656 5.26562 2.82031 5.0625C2.5625 4.78906 2.36328 4.47266 2.22266 4.11328C2.08203 3.75391 2.00781 3.38281 2 3C2 2.59375 2.07812 2.20703 2.23438 1.83984C2.39062 1.47266 2.60547 1.15625 2.87891 0.890625C3.15234 0.625 3.46875 0.410156 3.82812 0.246094C4.1875 0.0820312 4.57812 0 5 0C5.40625 0 5.79297 0.078125 6.16016 0.234375C6.52734 0.390625 6.84375 0.605469 7.10938 0.878906C7.375 1.15234 7.58984 1.47266 7.75391 1.83984C7.91797 2.20703 8 2.59375 8 3C8 3.38281 7.92969 3.75391 7.78906 4.11328C7.64844 4.47266 7.44531 4.78906 7.17969 5.0625C7.82031 5.41406 8.34375 5.89844 8.75 6.51562C9.17188 5.89062 9.71094 5.39844 10.3672 5.03906C11.0234 4.67969 11.7344 4.5 12.5 4.5C13.2578 4.5 13.9648 4.67969 14.6211 5.03906C15.2773 5.39844 15.8203 5.89062 16.25 6.51562C16.6562 5.89844 17.1797 5.41406 17.8203 5.0625C17.5625 4.78906 17.3633 4.47266 17.2227 4.11328C17.082 3.75391 17.0078 3.38281 17 3C17 2.59375 17.0781 2.20703 17.2344 1.83984C17.3906 1.47266 17.6055 1.15625 17.8789 0.890625C18.1523 0.625 18.4688 0.410156 18.8281 0.246094C19.1875 0.0820312 19.5781 0 20 0C20.4062 0 20.793 0.078125 21.1602 0.234375C21.5273 0.390625 21.8438 0.605469 22.1094 0.878906C22.375 1.15234 22.5898 1.47266 22.7539 1.83984C22.918 2.20703 23 2.59375 23 3C23 3.38281 22.9297 3.75391 22.7891 4.11328C22.6484 4.47266 22.4453 4.78906 22.1797 5.0625ZM3.5 3C3.5 3.21094 3.53906 3.40625 3.61719 3.58594C3.69531 3.76562 3.80078 3.92188 3.93359 4.05469C4.06641 4.1875 4.22656 4.29688 4.41406 4.38281C4.60156 4.46875 4.79688 4.50781 5 4.5C5.21094 4.5 5.40625 4.46094 5.58594 4.38281C5.76562 4.30469 5.92188 4.19922 6.05469 4.06641C6.1875 3.93359 6.29688 3.77344 6.38281 3.58594C6.46875 3.39844 6.50781 3.20312 6.5 3C6.5 2.78906 6.46094 2.59375 6.38281 2.41406C6.30469 2.23438 6.19922 2.07812 6.06641 1.94531C5.93359 1.8125 5.77344 1.70312 5.58594 1.61719C5.39844 1.53125 5.20312 1.49219 5 1.5C4.78906 1.5 4.59375 1.53906 4.41406 1.61719C4.23438 1.69531 4.07812 1.80078 3.94531 1.93359C3.8125 2.06641 3.70312 2.22656 3.61719 2.41406C3.53125 2.60156 3.49219 2.79688 3.5 3ZM12.5 12C12.9062 12 13.293 11.9219 13.6602 11.7656C14.0273 11.6094 14.3438 11.3945 14.6094 11.1211C14.875 10.8477 15.0898 10.5312 15.2539 10.1719C15.418 9.8125 15.5 9.42188 15.5 9C15.5 8.59375 15.4219 8.20703 15.2656 7.83984C15.1094 7.47266 14.8945 7.15625 14.6211 6.89062C14.3477 6.625 14.0273 6.41016 13.6602 6.24609C13.293 6.08203 12.9062 6 12.5 6C12.0859 6 11.6992 6.07812 11.3398 6.23438C10.9805 6.39062 10.6641 6.60547 10.3906 6.87891C10.1172 7.15234 9.90234 7.47266 9.74609 7.83984C9.58984 8.20703 9.50781 8.59375 9.5 9C9.5 9.41406 9.57812 9.80078 9.73438 10.1602C9.89062 10.5195 10.1055 10.8359 10.3789 11.1094C10.6523 11.3828 10.9688 11.5977 11.3281 11.7539C11.6875 11.9102 12.0781 11.9922 12.5 12ZM18.5 3C18.5 3.21094 18.5391 3.40625 18.6172 3.58594C18.6953 3.76562 18.8008 3.92188 18.9336 4.05469C19.0664 4.1875 19.2266 4.29688 19.4141 4.38281C19.6016 4.46875 19.7969 4.50781 20 4.5C20.2109 4.5 20.4062 4.46094 20.5859 4.38281C20.7656 4.30469 20.9219 4.19922 21.0547 4.06641C21.1875 3.93359 21.2969 3.77344 21.3828 3.58594C21.4688 3.39844 21.5078 3.20312 21.5 3C21.5 2.78906 21.4609 2.59375 21.3828 2.41406C21.3047 2.23438 21.1992 2.07812 21.0664 1.94531C20.9336 1.8125 20.7734 1.70312 20.5859 1.61719C20.3984 1.53125 20.2031 1.49219 20 1.5C19.7891 1.5 19.5938 1.53906 19.4141 1.61719C19.2344 1.69531 19.0781 1.80078 18.9453 1.93359C18.8125 2.06641 18.7031 2.22656 18.6172 2.41406C18.5312 2.60156 18.4922 2.79688 18.5 3Z" fill="black"/>
</svg>
