<svg width="23" height="24" viewBox="0 0 23 24" fill="none" xmlns="http://www.w3.org/2000/svg">
<path d="M11.12 10.1737C10.8742 10.1737 10.6385 10.2714 10.4648 10.4452C10.291 10.6189 10.1933 10.8546 10.1933 11.1004V16.6604C10.1933 16.9062 10.291 17.1419 10.4648 17.3157C10.6385 17.4894 10.8742 17.5871 11.12 17.5871C11.3658 17.5871 11.6015 17.4894 11.7753 17.3157C11.949 17.1419 12.0467 16.9062 12.0467 16.6604V11.1004C12.0467 10.8546 11.949 10.6189 11.7753 10.4452C11.6015 10.2714 11.3658 10.1737 11.12 10.1737ZM11.12 6.46707C10.8909 6.46707 10.667 6.53501 10.4765 6.66229C10.286 6.78957 10.1375 6.97047 10.0498 7.18213C9.96217 7.39379 9.93923 7.62669 9.98393 7.85138C10.0286 8.07608 10.1389 8.28247 10.3009 8.44447C10.4629 8.60647 10.6693 8.71679 10.894 8.76148C11.1187 8.80618 11.3516 8.78324 11.5633 8.69556C11.7749 8.60789 11.9558 8.45943 12.0831 8.26894C12.2104 8.07845 12.2783 7.8545 12.2783 7.6254C12.2783 7.3182 12.1563 7.02357 11.9391 6.80634C11.7218 6.58911 11.4272 6.46707 11.12 6.46707Z" fill="white"/>
</svg>
