<svg width="24" height="24" viewBox="0 0 24 24" fill="none" xmlns="http://www.w3.org/2000/svg">
<path d="M6.75 6.5001C6.15326 6.5001 5.58097 6.73716 5.15901 7.15911C4.73705 7.58107 4.5 8.15337 4.5 8.7501V15.2501C4.5 15.8468 4.73705 16.4191 5.15901 16.8411C5.58097 17.2631 6.15326 17.5001 6.75 17.5001H13.25C13.8467 17.5001 14.419 17.2631 14.841 16.8411C15.2629 16.4191 15.5 15.8468 15.5 15.2501V14.5251L18.886 16.4051C19.0001 16.4685 19.1288 16.5009 19.2593 16.4993C19.3898 16.4977 19.5176 16.462 19.6301 16.3959C19.7426 16.3297 19.8359 16.2354 19.9008 16.1221C19.9657 16.0088 19.9999 15.8806 20 15.7501V8.25511C20 8.1245 19.966 7.99615 19.9012 7.88276C19.8364 7.76936 19.7431 7.67485 19.6306 7.60858C19.518 7.54231 19.3901 7.50657 19.2595 7.50491C19.129 7.50325 19.0002 7.53572 18.886 7.5991L15.5 9.47711V8.7501C15.5 8.15337 15.2629 7.58107 14.841 7.15911C14.419 6.73716 13.8467 6.5001 13.25 6.5001H6.75ZM15.5 11.1921L18.5 9.5281V14.4751L15.5 12.8091V11.1921ZM14 8.7501V15.2501C14 15.449 13.921 15.6398 13.7803 15.7804C13.6397 15.9211 13.4489 16.0001 13.25 16.0001H6.75C6.55109 16.0001 6.36032 15.9211 6.21967 15.7804C6.07902 15.6398 6 15.449 6 15.2501V8.7501C6 8.55119 6.07902 8.36043 6.21967 8.21978C6.36032 8.07912 6.55109 8.0001 6.75 8.0001H13.25C13.4489 8.0001 13.6397 8.07912 13.7803 8.21978C13.921 8.36043 14 8.55119 14 8.7501ZM6.416 20.9221H6.418L6.421 20.9241L6.429 20.9281L6.453 20.9391L6.537 20.9781C6.60767 21.0101 6.70867 21.0521 6.84 21.1041C7.1 21.2061 7.477 21.3391 7.957 21.4711C8.918 21.7361 10.297 21.9981 11.999 22.0001C13.3648 22.0076 14.7254 21.831 16.044 21.4751C16.524 21.3421 16.901 21.2071 17.162 21.1051C17.2926 21.0533 17.4217 20.9976 17.549 20.9381C17.886 20.7761 18.093 20.2581 17.92 19.9131C17.8306 19.7357 17.6745 19.601 17.4859 19.5385C17.2973 19.4761 17.0916 19.491 16.914 19.5801L16.904 19.5841L16.85 19.6091C16.7993 19.6331 16.7197 19.6664 16.611 19.7091C16.2943 19.8321 15.9716 19.9389 15.644 20.0291C14.456 20.349 13.2303 20.5074 12 20.5001C10.7691 20.5027 9.54317 20.343 8.354 20.0251C8.02614 19.9356 7.70305 19.8295 7.386 19.7071C7.28692 19.6684 7.18888 19.627 7.092 19.5831L7.082 19.5781C6.90377 19.4897 6.69771 19.4756 6.50914 19.5391C6.32058 19.6026 6.16495 19.7384 6.0765 19.9166C5.98805 20.0948 5.97402 20.3009 6.0375 20.4895C6.10099 20.678 6.23777 20.8337 6.416 20.9221ZM7.955 2.5241C8.917 2.2571 10.297 1.99411 12 1.99611C13.703 1.99811 15.082 2.26111 16.043 2.52611C16.523 2.66011 16.9 2.7931 17.16 2.8961C17.2906 2.94722 17.4197 3.00224 17.547 3.06111L17.572 3.0731L17.58 3.0771L17.582 3.07811C17.582 3.07811 18.18 3.42811 17.92 4.08511C17.8313 4.26272 17.6758 4.39792 17.4876 4.46109C17.2994 4.52426 17.0939 4.51024 16.916 4.42211H16.914L16.904 4.4171L16.85 4.39211C16.7711 4.35706 16.6914 4.32371 16.611 4.2921C16.294 4.16905 15.9709 4.06224 15.643 3.9721C14.4553 3.65212 13.2301 3.49237 12 3.49711C10.7702 3.48938 9.54503 3.64849 8.358 3.97011C8.03044 4.06028 7.70769 4.16708 7.391 4.29011C7.29223 4.3295 7.19453 4.37152 7.098 4.41611L7.088 4.42111C6.9103 4.51062 6.70433 4.52587 6.51539 4.46352C6.32644 4.40116 6.17001 4.2663 6.0805 4.08861C5.99099 3.91091 5.97573 3.70493 6.03809 3.51599C6.10045 3.32705 6.23531 3.17062 6.413 3.08111H6.416L6.418 3.07911L6.426 3.07511L6.451 3.0631L6.535 3.0241C6.60633 2.99144 6.70733 2.94877 6.838 2.8961C7.098 2.7931 7.476 2.65811 7.957 2.52511" fill="#0DB431"/>
</svg>
