<svg width="25" height="24" viewBox="0 0 25 24" fill="none" xmlns="http://www.w3.org/2000/svg">
<path d="M10.25 11.25V17.25L15.5 14.25L10.25 11.25Z" fill="black"/>
<path d="M20 21H5C4.60218 21 4.22064 20.842 3.93934 20.5607C3.65804 20.2794 3.5 19.8978 3.5 19.5V9C3.5 8.60218 3.65804 8.22064 3.93934 7.93934C4.22064 7.65804 4.60218 7.5 5 7.5H20C20.3978 7.5 20.7794 7.65804 21.0607 7.93934C21.342 8.22064 21.5 8.60218 21.5 9V19.5C21.5 19.8978 21.342 20.2794 21.0607 20.5607C20.7794 20.842 20.3978 21 20 21ZM5 9V19.5H20V9H5ZM5 4.5H20V6H5V4.5ZM6.5 1.5H18.5V3H6.5V1.5Z" fill="black"/>
</svg>
