<svg width="25" height="24" viewBox="0 0 25 24" fill="none" xmlns="http://www.w3.org/2000/svg">
<g clip-path="url(#clip0_423_6039)">
<path d="M6 7C6 6.60603 6.0776 6.21593 6.22836 5.85195C6.37913 5.48797 6.6001 5.15726 6.87868 4.87868C7.15726 4.6001 7.48797 4.37913 7.85195 4.22836C8.21593 4.0776 8.60603 4 9 4C9.39397 4 9.78407 4.0776 10.1481 4.22836C10.512 4.37913 10.8427 4.6001 11.1213 4.87868C11.3999 5.15726 11.6209 5.48797 11.7716 5.85195C11.9224 6.21593 12 6.60603 12 7C12 7.79565 11.6839 8.55871 11.1213 9.12132C10.5587 9.68393 9.79565 10 9 10C8.20435 10 7.44129 9.68393 6.87868 9.12132C6.31607 8.55871 6 7.79565 6 7ZM9 2C7.67392 2 6.40215 2.52678 5.46447 3.46447C4.52678 4.40215 4 5.67392 4 7C4 8.32608 4.52678 9.59785 5.46447 10.5355C6.40215 11.4732 7.67392 12 9 12C10.3261 12 11.5979 11.4732 12.5355 10.5355C13.4732 9.59785 14 8.32608 14 7C14 5.67392 13.4732 4.40215 12.5355 3.46447C11.5979 2.52678 10.3261 2 9 2ZM16 2H15V4H16C16.394 4 16.7841 4.0776 17.1481 4.22836C17.512 4.37913 17.8427 4.6001 18.1213 4.87868C18.3999 5.15726 18.6209 5.48797 18.7716 5.85195C18.9224 6.21593 19 6.60603 19 7C19 7.39397 18.9224 7.78407 18.7716 8.14805C18.6209 8.51203 18.3999 8.84274 18.1213 9.12132C17.8427 9.3999 17.512 9.62087 17.1481 9.77164C16.7841 9.9224 16.394 10 16 10H15V12H16C17.3261 12 18.5979 11.4732 19.5355 10.5355C20.4732 9.59785 21 8.32608 21 7C21 5.67392 20.4732 4.40215 19.5355 3.46447C18.5979 2.52678 17.3261 2 16 2ZM0.5 19C0.5 17.6739 1.02678 16.4021 1.96447 15.4645C2.90215 14.5268 4.17392 14 5.5 14H12.5C13.8261 14 15.0979 14.5268 16.0355 15.4645C16.9732 16.4021 17.5 17.6739 17.5 19V21H15.5V19C15.5 18.2044 15.1839 17.4413 14.6213 16.8787C14.0587 16.3161 13.2956 16 12.5 16H5.5C4.70435 16 3.94129 16.3161 3.37868 16.8787C2.81607 17.4413 2.5 18.2044 2.5 19V21H0.5V19ZM24.5 19C24.5 18.3434 24.3707 17.6932 24.1194 17.0866C23.8681 16.48 23.4998 15.9288 23.0355 15.4645C22.5712 15.0002 22.02 14.6319 21.4134 14.3806C20.8068 14.1293 20.1566 14 19.5 14H18.5V16H19.5C20.2956 16 21.0587 16.3161 21.6213 16.8787C22.1839 17.4413 22.5 18.2044 22.5 19V21H24.5V19Z" fill="black"/>
</g>
<defs>
<clipPath id="clip0_423_6039">
<rect width="24" height="24" fill="white" transform="translate(0.5)"/>
</clipPath>
</defs>
</svg>
