<svg width="18" height="19" viewBox="0 0 18 19" fill="none" xmlns="http://www.w3.org/2000/svg">
<g clip-path="url(#clip0_534_4401)">
<path d="M7.5578 2.46085C7.8113 1.89085 8.59205 1.8631 8.89805 2.37535L8.9423 2.46085L9.7238 4.2196C10.4062 5.75479 11.541 7.04505 12.9765 7.91785L13.218 8.0596L14.6055 8.8396C14.7159 8.90136 14.8089 8.98973 14.8764 9.09667C14.9438 9.20362 14.9833 9.32573 14.9914 9.45188C14.9996 9.57803 14.976 9.70421 14.9229 9.81891C14.8698 9.93362 14.7888 10.0332 14.6873 10.1086L14.6063 10.1611L13.218 10.9411C11.7536 11.7649 10.5756 13.0162 9.84155 14.5276L9.7238 14.7811L8.9423 16.5399C8.6888 17.1099 7.90805 17.1376 7.60205 16.6254L7.5578 16.5399L6.7763 14.7811C6.09389 13.2459 4.95906 11.9557 3.52355 11.0829L3.28205 10.9411L1.89455 10.1611C1.78424 10.0994 1.69115 10.011 1.62375 9.90404C1.55634 9.79709 1.51677 9.67498 1.50865 9.54883C1.50052 9.42268 1.52409 9.2965 1.57722 9.18179C1.63034 9.06709 1.71133 8.9675 1.8128 8.8921L1.8938 8.8396L3.28205 8.0596C4.74651 7.23584 5.92453 5.98455 6.65855 4.4731L6.7763 4.2196L7.5578 2.46085ZM14.4158 2.0911C14.788 2.93686 15.4229 3.64013 16.2263 4.0966C16.3463 4.1641 16.3463 4.3366 16.2263 4.4041C15.4225 4.86064 14.7873 5.56421 14.415 6.41035C14.4008 6.44221 14.3776 6.46925 14.3484 6.48823C14.3191 6.50721 14.2849 6.51731 14.25 6.51731C14.2152 6.51731 14.181 6.50721 14.1517 6.48823C14.1225 6.46925 14.0993 6.44221 14.085 6.41035C13.7127 5.56448 13.0775 4.8612 12.2738 4.40485C12.2467 4.38938 12.2241 4.36701 12.2084 4.34001C12.1928 4.313 12.1845 4.28233 12.1845 4.2511C12.1845 4.21988 12.1928 4.1892 12.2084 4.1622C12.2241 4.1352 12.2467 4.11283 12.2738 4.09735C13.0777 3.64062 13.7129 2.93678 14.085 2.09035C14.0993 2.0585 14.1225 2.03146 14.1517 2.01248C14.181 1.9935 14.2152 1.9834 14.25 1.9834C14.2849 1.9834 14.3191 1.9935 14.3484 2.01248C14.3776 2.03146 14.4008 2.0585 14.415 2.09035L14.4158 2.0911Z" fill="#2388F9"/>
</g>
<defs>
<clipPath id="clip0_534_4401">
<rect width="18" height="18" fill="white" transform="translate(0 0.5)"/>
</clipPath>
</defs>
</svg>
