<svg width="30" height="30" viewBox="0 0 30 30" fill="none" xmlns="http://www.w3.org/2000/svg">
<g clip-path="url(#clip0_5104_5786)">
<path fill-rule="evenodd" clip-rule="evenodd" d="M22.7627 11.001C22.4404 11.001 22.1182 10.878 21.8721 10.6319L19.3701 8.12988C19.1299 7.88967 19.001 7.57326 19.001 7.23927C19.001 6.8994 19.1299 6.583 19.3701 6.34866L21.9424 3.77637C22.1826 3.53616 22.499 3.40723 22.833 3.40723C23.1729 3.40723 23.4893 3.53616 23.7236 3.77637L26.2256 6.27835C26.7178 6.77054 26.7178 7.57325 26.2256 8.06544L23.6533 10.6377C23.4072 10.8779 23.0849 11.001 22.7627 11.001ZM22.8271 4.10446C22.6748 4.10446 22.5342 4.16308 22.4287 4.26855L19.8564 6.84084C19.751 6.94631 19.6923 7.08693 19.6923 7.23926C19.6923 7.39158 19.751 7.5322 19.8564 7.63767L22.3584 10.1397C22.5752 10.3565 22.9326 10.3565 23.1494 10.1397L25.7217 7.56736C25.9385 7.35054 25.9385 6.99316 25.7217 6.77634L23.2197 4.27436C23.1201 4.16308 22.9795 4.10446 22.8271 4.10446Z" fill="#909090"/>
<path fill-rule="evenodd" clip-rule="evenodd" d="M19.7509 6.7999C19.6513 6.7999 19.5634 6.75886 19.4931 6.68855C19.1708 6.34868 17.9697 5.15336 16.0478 4.03425C13.581 2.59872 10.9677 1.87801 8.27829 1.89559C8.12009 1.89559 7.98535 1.79012 7.93843 1.6378C7.89739 1.48548 7.956 1.32139 8.09075 1.23939C8.16106 1.19835 9.83687 0.184692 12.4208 0.020606C13.9384 -0.0789806 15.4501 0.137771 16.9207 0.665114C18.7489 1.3155 20.5126 2.44639 22.1648 4.02255C22.2352 4.08698 22.2703 4.18075 22.2762 4.27452C22.2762 4.3683 22.241 4.462 22.1707 4.5265L19.9969 6.70031C19.9326 6.76474 19.8447 6.7999 19.7509 6.7999ZM9.80178 1.25696C12.0811 1.4679 14.2959 2.2003 16.4111 3.43077C18.0693 4.39757 19.2236 5.4288 19.7568 5.95033L21.4209 4.28629C18.6435 1.73157 15.6494 0.536252 12.5088 0.723798C11.4131 0.78816 10.4873 1.02256 9.80178 1.25696Z" fill="#909090"/>
<path fill-rule="evenodd" clip-rule="evenodd" d="M28.4522 22.0693C28.4229 22.0693 28.3877 22.0634 28.3584 22.0576C28.2061 22.0165 28.1006 21.8759 28.1006 21.7177C28.1182 19.0282 27.3975 16.415 25.9619 13.9424C24.8428 12.0205 23.6475 10.8194 23.3076 10.4971C23.2373 10.4327 23.1963 10.3389 23.1963 10.2451C23.1963 10.1514 23.2314 10.0576 23.3018 9.99315L25.4756 7.81934C25.54 7.75491 25.6338 7.71387 25.7275 7.71387C25.8213 7.71387 25.915 7.75491 25.9795 7.82522C27.5557 9.47757 28.6866 11.2413 29.337 13.0693C29.8584 14.54 30.0752 16.0517 29.9815 17.5693C29.8174 20.1533 28.8037 21.829 28.7627 21.8993C28.6865 22.0107 28.5693 22.0693 28.4522 22.0693ZM24.0459 10.2451C24.5733 10.7841 25.5987 11.9326 26.5655 13.5908C27.796 15.706 28.5225 17.9208 28.7393 20.2002C28.9737 19.5087 29.208 18.583 29.2725 17.4931C29.46 14.3526 28.2647 11.3526 25.71 8.58107L24.0459 10.2451Z" fill="#909090"/>
<path fill-rule="evenodd" clip-rule="evenodd" d="M25.751 6.65336C25.6631 6.65336 25.5693 6.6182 25.5049 6.54789L23.4482 4.49124C23.3838 4.42681 23.3428 4.33304 23.3428 4.24515C23.3428 4.15726 23.3779 4.06348 23.4482 3.99905L24.7022 2.74512C25.042 2.40525 25.4932 2.21777 25.9795 2.21777C26.46 2.21777 26.917 2.40525 27.2568 2.74512C27.96 3.44824 27.96 4.59671 27.2568 5.29984L26.0029 6.55377C25.9326 6.6182 25.8447 6.65336 25.751 6.65336ZM24.1923 4.24515L25.751 5.8038L26.7529 4.80184C27.1807 4.37408 27.1807 3.67095 26.7529 3.24326C26.5479 3.03821 26.2666 2.92097 25.9736 2.92097C25.6806 2.92097 25.3994 3.03232 25.1943 3.24326L24.1923 4.24515Z" fill="#909090"/>
<path fill-rule="evenodd" clip-rule="evenodd" d="M2.40136 30.0029C2.30758 30.0029 2.21969 29.9677 2.15526 29.8974L0.0986157 27.8466C-0.0361271 27.7119 -0.0361271 27.4892 0.0986157 27.3486L19.5868 7.85449C19.6512 7.79006 19.745 7.74902 19.8329 7.74902C19.9266 7.74902 20.0145 7.78418 20.079 7.85449L22.1356 9.91114C22.2704 10.0459 22.2704 10.2686 22.1356 10.4092L2.64745 29.8974C2.58302 29.9677 2.49513 30.0029 2.40136 30.0029ZM0.84278 27.5947L2.40136 29.1532L21.3973 10.1573L19.8388 8.59869L0.84278 27.5947Z" fill="#909090"/>
<path fill-rule="evenodd" clip-rule="evenodd" d="M7.28224 25.1221C7.19435 25.1221 7.10058 25.0869 7.03614 25.0166L4.97362 22.9658C4.83887 22.8311 4.83887 22.6084 4.97362 22.4678C5.10836 22.333 5.33106 22.333 5.47169 22.4678L7.52833 24.5244C7.66308 24.6591 7.66308 24.8818 7.52833 25.0225C7.45802 25.0869 7.37013 25.1221 7.28224 25.1221Z" fill="#909090"/>
<path fill-rule="evenodd" clip-rule="evenodd" d="M12.1455 20.2588C12.0576 20.2588 11.9638 20.2236 11.8994 20.1533L9.84276 18.0967C9.70801 17.9619 9.70801 17.7392 9.84276 17.5986C9.9775 17.4639 10.2002 17.4639 10.3408 17.5986L12.3975 19.6553C12.5322 19.79 12.5322 20.0127 12.3975 20.1533C12.3272 20.2236 12.2334 20.2588 12.1455 20.2588Z" fill="#909090"/>
<path fill-rule="evenodd" clip-rule="evenodd" d="M17.0146 15.3896C16.9267 15.3896 16.8329 15.3544 16.7685 15.2841L14.7119 13.2275C14.5772 13.0928 14.5772 12.8701 14.7119 12.7295C14.8466 12.5947 15.0693 12.5947 15.2099 12.7295L17.2665 14.7861C17.4013 14.9208 17.4013 15.1435 17.2665 15.2841C17.1904 15.3544 17.1025 15.3896 17.0146 15.3896Z" fill="#909090"/>
</g>
<defs>
<clipPath id="clip0_5104_5786">
<rect width="30" height="30" fill="white"/>
</clipPath>
</defs>
</svg>
