<svg width="15" height="16" viewBox="0 0 15 16" fill="none" xmlns="http://www.w3.org/2000/svg">
<path fill-rule="evenodd" clip-rule="evenodd" d="M13.4109 4.3425C13.4109 3.99098 13.3348 3.64363 13.188 3.32425C13.0411 3.00487 12.827 2.72102 12.5602 2.49215C12.2934 2.26327 11.9803 2.09479 11.6423 1.99825C11.3043 1.9017 10.9494 1.87938 10.6019 1.93281L6.33486 2.58933C5.75913 2.67787 5.23411 2.9696 4.85483 3.41172C4.47556 3.85383 4.26709 4.41712 4.26716 4.99963V10.3414C3.84948 10.1433 3.37876 10.0862 2.92583 10.1787C2.4729 10.2712 2.06227 10.5083 1.75573 10.8544C1.4492 11.2004 1.26335 11.6366 1.22616 12.0974C1.18896 12.5582 1.30243 13.0186 1.54949 13.4093C1.79655 13.8 2.16383 14.1 2.59606 14.2639C3.02829 14.4279 3.50208 14.447 3.94612 14.3185C4.39017 14.1899 4.78044 13.9206 5.05822 13.5511C5.33599 13.1815 5.48623 12.7318 5.48632 12.2695V4.99963C5.48614 4.70827 5.59031 4.42648 5.77996 4.20529C5.96961 3.98411 6.2322 3.83816 6.52018 3.79387L10.7873 3.13735C10.9611 3.11062 11.1386 3.1218 11.3076 3.17013C11.4767 3.21845 11.6333 3.30278 11.7667 3.41731C11.9001 3.53185 12.0072 3.67389 12.0806 3.83369C12.1539 3.99349 12.1919 4.16727 12.1917 4.3431V8.51265C11.7741 8.31453 11.3033 8.25743 10.8504 8.34994C10.3975 8.44245 9.98685 8.67957 9.68032 9.02561C9.37379 9.37164 9.18794 9.80788 9.15074 10.2687C9.11355 10.7294 9.22702 11.1898 9.47408 11.5806C9.72114 11.9713 10.0884 12.2712 10.5206 12.4352C10.9529 12.5991 11.4267 12.6183 11.8707 12.4897C12.3148 12.3611 12.705 12.0918 12.9828 11.7223C13.2606 11.3528 13.4108 10.903 13.4109 10.4408V4.3425ZM12.1917 10.4408C12.1917 10.1983 12.0954 9.96568 11.9239 9.79421C11.7524 9.62273 11.5199 9.52639 11.2774 9.52639C11.0349 9.52639 10.8023 9.62273 10.6308 9.79421C10.4593 9.96568 10.363 10.1983 10.363 10.4408C10.363 10.6833 10.4593 10.9158 10.6308 11.0873C10.8023 11.2588 11.0349 11.3551 11.2774 11.3551C11.5199 11.3551 11.7524 11.2588 11.9239 11.0873C12.0954 10.9158 12.1917 10.6833 12.1917 10.4408ZM4.26716 12.2695C4.26716 12.1494 4.24351 12.0305 4.19755 11.9196C4.1516 11.8087 4.08425 11.7079 3.99934 11.623C3.91444 11.538 3.81364 11.4707 3.7027 11.4247C3.59176 11.3788 3.47286 11.3551 3.35278 11.3551C3.2327 11.3551 3.1138 11.3788 3.00287 11.4247C2.89193 11.4707 2.79113 11.538 2.70622 11.623C2.62131 11.7079 2.55396 11.8087 2.50801 11.9196C2.46206 12.0305 2.43841 12.1494 2.43841 12.2695C2.43841 12.512 2.53474 12.7446 2.70622 12.9161C2.8777 13.0876 3.11027 13.1839 3.35278 13.1839C3.59529 13.1839 3.82786 13.0876 3.99934 12.9161C4.17082 12.7446 4.26716 12.512 4.26716 12.2695Z" fill="white"/>
</svg>
