<svg width="31" height="30" viewBox="0 0 31 30" fill="none" xmlns="http://www.w3.org/2000/svg">
<path d="M3.66251 18.4625C3.39626 20.205 4.58501 21.4138 6.04001 22.0163C11.6188 24.3288 19.3813 24.3288 24.96 22.0163C26.415 21.4138 27.6038 20.2038 27.3375 18.4625C27.175 17.3913 26.3663 16.5 25.7675 15.6288C24.9838 14.4738 24.9063 13.215 24.905 11.875C24.9063 6.6975 20.6963 2.5 15.5 2.5C10.3038 2.5 6.09376 6.6975 6.09376 11.875C6.09376 13.215 6.01626 14.475 5.23126 15.6288C4.63376 16.5 3.82626 17.3913 3.66251 18.4625Z" stroke="black" stroke-width="1.5" stroke-linecap="round" stroke-linejoin="round"/>
<path d="M10.5 23.75C11.0725 25.9063 13.095 27.5 15.5 27.5C17.9062 27.5 19.9263 25.9063 20.5 23.75" stroke="black" stroke-width="1.5" stroke-linecap="round" stroke-linejoin="round"/>
<line x1="4.35355" y1="1.64645" x2="29.3536" y2="26.6464" stroke="black"/>
</svg>
