<svg width="30" height="30" viewBox="0 0 30 30" fill="none" xmlns="http://www.w3.org/2000/svg">
<path d="M20.9375 5C21.6502 4.99991 22.3363 5.27037 22.8572 5.75671C23.3781 6.24305 23.695 6.90901 23.7438 7.62L23.75 7.8125V21.875C23.7497 22.0312 23.8079 22.1818 23.9131 22.2972C24.0184 22.4126 24.163 22.4845 24.3185 22.4986C24.4741 22.5127 24.6293 22.4681 24.7535 22.3735C24.8778 22.2789 24.9622 22.1412 24.99 21.9875L25 21.875V8.7675C25.6524 8.84045 26.2588 9.13933 26.714 9.61236C27.1692 10.0854 27.4446 10.7028 27.4925 11.3575L27.5 11.5625V20.9375C27.5001 21.9752 27.1031 22.9735 26.3904 23.7278C25.6778 24.482 24.7035 24.935 23.6675 24.9938L23.4375 25H6.5625C5.52483 25.0001 4.52646 24.6031 3.77221 23.8904C3.01796 23.1778 2.565 22.2035 2.50625 21.1675L2.5 20.9375V7.8125C2.49991 7.09984 2.77037 6.41372 3.25671 5.89281C3.74305 5.37189 4.40901 5.05503 5.12 5.00625L5.3125 5H20.9375ZM11.56 13.75H7.185C6.93636 13.75 6.6979 13.8488 6.52209 14.0246C6.34627 14.2004 6.2475 14.4389 6.2475 14.6875V19.0625C6.2475 19.58 6.6675 20 7.185 20H11.56C11.8086 20 12.0471 19.9012 12.2229 19.7254C12.3987 19.5496 12.4975 19.3111 12.4975 19.0625V14.6875C12.4975 14.4389 12.3987 14.2004 12.2229 14.0246C12.0471 13.8488 11.8086 13.75 11.56 13.75ZM19.065 18.125H15.9425L15.815 18.1337C15.5797 18.1661 15.3654 18.2866 15.2155 18.4709C15.0656 18.6551 14.9913 18.8894 15.0075 19.1264C15.0237 19.3634 15.1292 19.5854 15.3028 19.7475C15.4763 19.9097 15.705 19.9999 15.9425 20H19.065L19.1925 19.9913C19.4278 19.9589 19.6421 19.8384 19.792 19.6541C19.9419 19.4699 20.0162 19.2356 20 18.9986C19.9838 18.7616 19.8783 18.5396 19.7047 18.3775C19.5312 18.2153 19.3025 18.1251 19.065 18.125ZM10.6225 15.625V18.125H8.1225V15.625H10.6225ZM19.0625 13.75L15.94 13.7563L15.8125 13.7638C15.5749 13.7938 15.3578 13.9137 15.2058 14.0987C15.0538 14.2838 14.9783 14.52 14.995 14.7589C15.0116 14.9978 15.119 15.2213 15.2952 15.3835C15.4714 15.5458 15.703 15.6344 15.9425 15.6313L19.0662 15.625L19.1925 15.6163C19.4279 15.5839 19.6423 15.4633 19.7922 15.2789C19.9421 15.0945 20.0163 14.8601 20 14.623C19.9836 14.3859 19.8779 14.1639 19.7041 14.0018C19.5303 13.8398 19.3014 13.7498 19.0638 13.75M19.065 9.38H7.185L7.0575 9.38875C6.82219 9.42113 6.60794 9.54162 6.45804 9.72588C6.30814 9.91014 6.23378 10.1444 6.24997 10.3814C6.26616 10.6184 6.3717 10.8404 6.54526 11.0025C6.71882 11.1647 6.94747 11.2549 7.185 11.255H19.065L19.1925 11.2475C19.4298 11.2174 19.6467 11.0977 19.7986 10.9129C19.9506 10.7281 20.0262 10.4923 20.0099 10.2536C19.9936 10.0149 19.8866 9.7915 19.711 9.62909C19.5353 9.46668 19.3042 9.37757 19.065 9.38Z" fill="#008BCB"/>
</svg>
