<svg width="30" height="30" viewBox="0 0 30 30" fill="none" xmlns="http://www.w3.org/2000/svg">
<mask id="path-1-inside-1_622_6172" fill="white">
<path d="M20.9375 5C21.6502 4.99991 22.3363 5.27037 22.8572 5.75671C23.3781 6.24305 23.695 6.90901 23.7438 7.62L23.75 7.8125V21.875C23.7497 22.0312 23.8079 22.1818 23.9131 22.2972C24.0184 22.4126 24.163 22.4845 24.3185 22.4986C24.4741 22.5127 24.6293 22.4681 24.7535 22.3735C24.8778 22.2789 24.9622 22.1412 24.99 21.9875L25 21.875V8.7675C25.6524 8.84045 26.2588 9.13933 26.714 9.61236C27.1692 10.0854 27.4446 10.7028 27.4925 11.3575L27.5 11.5625V20.9375C27.5001 21.9752 27.1031 22.9735 26.3904 23.7278C25.6778 24.482 24.7035 24.935 23.6675 24.9938L23.4375 25H6.5625C5.52483 25.0001 4.52646 24.6031 3.77221 23.8904C3.01796 23.1778 2.565 22.2035 2.50625 21.1675L2.5 20.9375V7.8125C2.49991 7.09984 2.77037 6.41372 3.25671 5.89281C3.74305 5.37189 4.40901 5.05503 5.12 5.00625L5.3125 5H20.9375ZM11.56 13.75H7.185C6.93636 13.75 6.6979 13.8488 6.52209 14.0246C6.34627 14.2004 6.2475 14.4389 6.2475 14.6875V19.0625C6.2475 19.58 6.6675 20 7.185 20H11.56C11.8086 20 12.0471 19.9012 12.2229 19.7254C12.3987 19.5496 12.4975 19.3111 12.4975 19.0625V14.6875C12.4975 14.4389 12.3987 14.2004 12.2229 14.0246C12.0471 13.8488 11.8086 13.75 11.56 13.75ZM19.065 18.125H15.9425L15.815 18.1337C15.5797 18.1661 15.3654 18.2866 15.2155 18.4709C15.0656 18.6551 14.9913 18.8894 15.0075 19.1264C15.0237 19.3634 15.1292 19.5854 15.3028 19.7475C15.4763 19.9097 15.705 19.9999 15.9425 20H19.065L19.1925 19.9913C19.4278 19.9589 19.6421 19.8384 19.792 19.6541C19.9419 19.4699 20.0162 19.2356 20 18.9986C19.9838 18.7616 19.8783 18.5396 19.7047 18.3775C19.5312 18.2153 19.3025 18.1251 19.065 18.125ZM10.6225 15.625V18.125H8.1225V15.625H10.6225ZM19.0625 13.75L15.94 13.7563L15.8125 13.7638C15.5749 13.7938 15.3578 13.9137 15.2058 14.0987C15.0538 14.2838 14.9783 14.52 14.995 14.7589C15.0116 14.9978 15.119 15.2213 15.2952 15.3835C15.4714 15.5458 15.703 15.6344 15.9425 15.6313L19.0662 15.625L19.1925 15.6163C19.4279 15.5839 19.6423 15.4633 19.7922 15.2789C19.9421 15.0945 20.0163 14.8601 20 14.623C19.9836 14.3859 19.8779 14.1639 19.7041 14.0018C19.5303 13.8398 19.3014 13.7498 19.0638 13.75M19.065 9.38H7.185L7.0575 9.38875C6.82219 9.42113 6.60794 9.54162 6.45804 9.72588C6.30814 9.91014 6.23378 10.1444 6.24997 10.3814C6.26616 10.6184 6.3717 10.8404 6.54526 11.0025C6.71882 11.1647 6.94747 11.2549 7.185 11.255H19.065L19.1925 11.2475C19.4298 11.2174 19.6467 11.0977 19.7986 10.9129C19.9506 10.7281 20.0262 10.4923 20.0099 10.2536C19.9936 10.0149 19.8866 9.7915 19.711 9.62909C19.5353 9.46668 19.3042 9.37757 19.065 9.38Z"/>
</mask>
<path d="M20.9375 5V6H20.9376L20.9375 5ZM23.7438 7.62L24.7432 7.58756L24.7426 7.56954L24.7414 7.55156L23.7438 7.62ZM23.75 7.8125H24.75V7.79627L24.7495 7.78006L23.75 7.8125ZM23.75 21.875L24.75 21.8768V21.875H23.75ZM24.99 21.9875L25.974 22.1657L25.9821 22.1211L25.9861 22.076L24.99 21.9875ZM25 21.875L25.9961 21.9635L26 21.9194V21.875H25ZM25 8.7675L25.1111 7.77369L24 7.64946V8.7675H25ZM27.4925 11.3575L28.4918 11.3209L28.4912 11.3027L28.4898 11.2846L27.4925 11.3575ZM27.5 11.5625H28.5V11.5442L28.4993 11.5259L27.5 11.5625ZM27.5 20.9375H26.5V20.9376L27.5 20.9375ZM23.6675 24.9938L23.6947 25.9934L23.7094 25.993L23.7241 25.9921L23.6675 24.9938ZM23.4375 25V26H23.4511L23.4647 25.9996L23.4375 25ZM6.5625 25V24H6.56243L6.5625 25ZM2.50625 21.1675L1.50662 21.1947L1.50702 21.2094L1.50785 21.2241L2.50625 21.1675ZM2.5 20.9375H1.5V20.9511L1.50037 20.9647L2.5 20.9375ZM2.5 7.8125H3.5V7.81238L2.5 7.8125ZM5.12 5.00625L5.08755 4.00678L5.06954 4.00736L5.05156 4.0086L5.12 5.00625ZM5.3125 5V4H5.29627L5.28005 4.00053L5.3125 5ZM6.2475 14.6875H5.2475H6.2475ZM19.065 18.125L19.0653 17.125H19.065V18.125ZM15.9425 18.125V17.125H15.9082L15.874 17.1273L15.9425 18.125ZM15.815 18.1337L15.7465 17.1361L15.7125 17.1384L15.6787 17.1431L15.815 18.1337ZM15.9425 20L15.9422 21H15.9425V20ZM19.065 20V21H19.0993L19.1335 20.9977L19.065 20ZM19.1925 19.9913L19.261 20.9889L19.295 20.9866L19.3288 20.9819L19.1925 19.9913ZM10.6225 15.625H11.6225V14.625H10.6225V15.625ZM10.6225 18.125V19.125H11.6225V18.125H10.6225ZM8.1225 18.125H7.1225V19.125H8.1225V18.125ZM8.1225 15.625V14.625H7.1225V15.625H8.1225ZM15.94 13.7563L15.938 12.7563L15.9096 12.7563L15.8813 12.758L15.94 13.7563ZM15.8125 13.7638L15.7538 12.7655L15.7203 12.7674L15.6869 12.7717L15.8125 13.7638ZM15.9425 15.6313L15.9405 14.6312L15.9294 14.6313L15.9425 15.6313ZM19.0662 15.625L19.0683 16.625L19.1019 16.6249L19.1354 16.6226L19.0662 15.625ZM19.1925 15.6163L19.2616 16.6139L19.2953 16.6115L19.3288 16.6069L19.1925 15.6163ZM19.065 9.38V10.3801L19.0752 10.3799L19.065 9.38ZM7.185 9.38V8.38H7.15073L7.11653 8.38235L7.185 9.38ZM7.0575 9.38875L6.98903 8.3911L6.95499 8.39343L6.92119 8.39808L7.0575 9.38875ZM7.185 11.255L7.18469 12.255H7.185V11.255ZM19.065 11.255V12.255H19.0944L19.1237 12.2533L19.065 11.255ZM19.1925 11.2475L19.2512 12.2458L19.2849 12.2438L19.3183 12.2396L19.1925 11.2475ZM20.9376 6C21.3969 5.99994 21.8391 6.17424 22.1748 6.48766L23.5396 5.02576C22.8335 4.3665 21.9034 3.99988 20.9374 4L20.9376 6ZM22.1748 6.48766C22.5105 6.80108 22.7147 7.23025 22.7461 7.68844L24.7414 7.55156C24.6753 6.58777 24.2458 5.68503 23.5396 5.02576L22.1748 6.48766ZM22.7443 7.65245L22.7505 7.84494L24.7495 7.78006L24.7432 7.58756L22.7443 7.65245ZM22.75 7.8125V21.875H24.75V7.8125H22.75ZM22.75 21.8732C22.7493 22.2792 22.9006 22.6709 23.1742 22.971L24.6521 21.6235C24.7153 21.6928 24.7502 21.7831 24.75 21.8768L22.75 21.8732ZM23.1742 22.971C23.4477 23.271 23.8238 23.4578 24.2282 23.4945L24.4089 21.5027C24.5022 21.5112 24.589 21.5542 24.6521 21.6235L23.1742 22.971ZM24.2282 23.4945C24.6326 23.5312 25.0361 23.4151 25.3592 23.1692L24.1479 21.5778C24.2224 21.521 24.3156 21.4942 24.4089 21.5027L24.2282 23.4945ZM25.3592 23.1692C25.6823 22.9233 25.9017 22.5652 25.974 22.1657L24.006 21.8093C24.0227 21.7171 24.0733 21.6345 24.1479 21.5778L25.3592 23.1692ZM25.9861 22.076L25.9961 21.9635L24.0039 21.7865L23.9939 21.899L25.9861 22.076ZM26 21.875V8.7675H24V21.875H26ZM24.8889 9.76131C25.3093 9.80832 25.7001 10.0009 25.9935 10.3058L27.4345 8.91894C26.8175 8.27772 25.9955 7.87258 25.1111 7.77369L24.8889 9.76131ZM25.9935 10.3058C26.2868 10.6106 26.4643 11.0085 26.4952 11.4304L28.4898 11.2846C28.4249 10.397 28.0516 9.56016 27.4345 8.91894L25.9935 10.3058ZM26.4932 11.3941L26.5007 11.5991L28.4993 11.5259L28.4918 11.3209L26.4932 11.3941ZM26.5 11.5625V20.9375H28.5V11.5625H26.5ZM26.5 20.9376C26.5001 21.7198 26.2008 22.4724 25.6635 23.041L27.1173 24.4146C28.0053 23.4746 28.5001 22.2305 28.5 20.9374L26.5 20.9376ZM25.6635 23.041C25.1263 23.6096 24.3919 23.9511 23.6109 23.9954L23.7241 25.9921C25.0151 25.9189 26.2292 25.3545 27.1173 24.4146L25.6635 23.041ZM23.6403 23.9941L23.4103 24.0004L23.4647 25.9996L23.6947 25.9934L23.6403 23.9941ZM23.4375 24H6.5625V26H23.4375V24ZM6.56243 24C5.78019 24.0001 5.02758 23.7008 4.45899 23.1635L3.08544 24.6173C4.02535 25.5053 5.26947 26.0001 6.56257 26L6.56243 24ZM4.45899 23.1635C3.8904 22.6263 3.54893 21.8919 3.50465 21.1109L1.50785 21.2241C1.58106 22.5151 2.14552 23.7292 3.08544 24.6173L4.45899 23.1635ZM3.50588 21.1403L3.49963 20.9103L1.50037 20.9647L1.50662 21.1947L3.50588 21.1403ZM3.5 20.9375V7.8125H1.5V20.9375H3.5ZM3.5 7.81238C3.49994 7.35311 3.67424 6.91094 3.98766 6.57524L2.52576 5.21037C1.8665 5.9165 1.49988 6.84657 1.5 7.81262L3.5 7.81238ZM3.98766 6.57524C4.30108 6.23954 4.73025 6.03534 5.18844 6.00391L5.05156 4.0086C4.08777 4.07472 3.18503 4.50424 2.52576 5.21037L3.98766 6.57524ZM5.15245 6.00572L5.34495 5.99947L5.28005 4.00053L5.08755 4.00678L5.15245 6.00572ZM5.3125 6H20.9375V4H5.3125V6ZM11.56 12.75H7.185V14.75H11.56V12.75ZM7.185 12.75C6.67114 12.75 6.17833 12.9541 5.81498 13.3175L7.22919 14.7317C7.21747 14.7434 7.20158 14.75 7.185 14.75V12.75ZM5.81498 13.3175C5.45163 13.6808 5.2475 14.1736 5.2475 14.6875H7.2475C7.2475 14.7041 7.24092 14.72 7.22919 14.7317L5.81498 13.3175ZM5.2475 14.6875V19.0625H7.2475V14.6875H5.2475ZM5.2475 19.0625C5.2475 20.1323 6.11522 21 7.185 21V19C7.21978 19 7.2475 19.0277 7.2475 19.0625H5.2475ZM7.185 21H11.56V19H7.185V21ZM11.56 21C12.0739 21 12.5667 20.7959 12.93 20.4325L11.5158 19.0183C11.5275 19.0066 11.5434 19 11.56 19V21ZM12.93 20.4325C13.2934 20.0692 13.4975 19.5764 13.4975 19.0625H11.4975C11.4975 19.0459 11.5041 19.03 11.5158 19.0183L12.93 20.4325ZM13.4975 19.0625V14.6875H11.4975V19.0625H13.4975ZM13.4975 14.6875C13.4975 14.1736 13.2934 13.6808 12.93 13.3175L11.5158 14.7317C11.5041 14.72 11.4975 14.7041 11.4975 14.6875H13.4975ZM12.93 13.3175C12.5667 12.9541 12.0739 12.75 11.56 12.75V14.75C11.5434 14.75 11.5275 14.7434 11.5158 14.7317L12.93 13.3175ZM19.065 17.125H15.9425V19.125H19.065V17.125ZM15.874 17.1273L15.7465 17.1361L15.8835 19.1314L16.011 19.1227L15.874 17.1273ZM15.6787 17.1431C15.1924 17.21 14.7496 17.459 14.4398 17.8398L15.9913 19.1019C15.9813 19.1142 15.967 19.1223 15.9513 19.1244L15.6787 17.1431ZM14.4398 17.8398C14.13 18.2206 13.9763 18.7048 14.0098 19.1946L16.0051 19.0582C16.0062 19.074 16.0013 19.0897 15.9913 19.1019L14.4398 17.8398ZM14.0098 19.1946C14.0433 19.6843 14.2614 20.1431 14.6201 20.4782L15.9855 19.0168C15.997 19.0276 16.0041 19.0424 16.0051 19.0582L14.0098 19.1946ZM14.6201 20.4782C14.9788 20.8134 15.4513 20.9998 15.9422 21L15.9428 19C15.9586 19 15.9739 19.006 15.9855 19.0168L14.6201 20.4782ZM15.9425 21H19.065V19H15.9425V21ZM19.1335 20.9977L19.261 20.9889L19.124 18.9936L18.9965 19.0023L19.1335 20.9977ZM19.3288 20.9819C19.8151 20.915 20.2579 20.666 20.5677 20.2852L19.0162 19.0231C19.0262 19.0108 19.0405 19.0027 19.0562 19.0006L19.3288 20.9819ZM20.5677 20.2852C20.8775 19.9044 21.0312 19.4202 20.9977 18.9304L19.0024 19.0668C19.0013 19.051 19.0062 19.0353 19.0162 19.0231L20.5677 20.2852ZM20.9977 18.9304C20.9642 18.4407 20.7461 17.9819 20.3874 17.6468L19.022 19.1082C19.0105 19.0974 19.0034 19.0826 19.0024 19.0668L20.9977 18.9304ZM20.3874 17.6468C20.0287 17.3116 19.5562 17.1252 19.0653 17.125L19.0647 19.125C19.0489 19.125 19.0336 19.119 19.022 19.1082L20.3874 17.6468ZM9.6225 15.625V18.125H11.6225V15.625H9.6225ZM10.6225 17.125H8.1225V19.125H10.6225V17.125ZM9.1225 18.125V15.625H7.1225V18.125H9.1225ZM8.1225 16.625H10.6225V14.625H8.1225V16.625ZM19.0605 12.75L15.938 12.7563L15.942 14.7562L19.0645 14.75L19.0605 12.75ZM15.8813 12.758L15.7538 12.7655L15.8712 14.762L15.9987 14.7545L15.8813 12.758ZM15.6869 12.7717C15.1959 12.8338 14.7473 13.0815 14.4331 13.464L15.9785 14.7335C15.9684 14.7458 15.9539 14.7538 15.9381 14.7558L15.6869 12.7717ZM14.4331 13.464C14.1189 13.8464 13.963 14.3346 13.9974 14.8284L15.9926 14.6895C15.9937 14.7054 15.9886 14.7212 15.9785 14.7335L14.4331 13.464ZM13.9974 14.8284C14.0318 15.3221 14.2538 15.784 14.6179 16.1193L15.9725 14.6478C15.9843 14.6587 15.9915 14.6736 15.9926 14.6895L13.9974 14.8284ZM14.6179 16.1193C14.9821 16.4545 15.4607 16.6377 15.9556 16.6312L15.9294 14.6313C15.9454 14.6311 15.9608 14.637 15.9725 14.6478L14.6179 16.1193ZM15.9445 16.6312L19.0683 16.625L19.0642 14.625L15.9405 14.6313L15.9445 16.6312ZM19.1354 16.6226L19.2616 16.6139L19.1234 14.6186L18.9971 14.6274L19.1354 16.6226ZM19.3288 16.6069C19.8153 16.54 20.2583 16.2908 20.5681 15.9097L19.0162 14.6481C19.0262 14.6358 19.0405 14.6277 19.0562 14.6256L19.3288 16.6069ZM20.5681 15.9097C20.8779 15.5286 21.0314 15.0441 20.9976 14.5542L19.0024 14.6918C19.0013 14.676 19.0062 14.6604 19.0162 14.6481L20.5681 15.9097ZM20.9976 14.5542C20.9638 14.0642 20.7452 13.6054 20.386 13.2704L19.0221 14.7332C19.0105 14.7224 19.0035 14.7076 19.0024 14.6918L20.9976 14.5542ZM20.386 13.2704C20.0268 12.9355 19.5538 12.7495 19.0627 12.75L19.0648 14.75C19.0489 14.75 19.0337 14.744 19.0221 14.7332L20.386 13.2704ZM19.065 8.38H7.185V10.38H19.065V8.38ZM7.11653 8.38235L6.98903 8.3911L7.12597 10.3864L7.25347 10.3777L7.11653 8.38235ZM6.92119 8.39808C6.43488 8.465 5.9921 8.71401 5.68231 9.09481L7.23377 10.3569C7.22378 10.3692 7.20949 10.3773 7.19381 10.3794L6.92119 8.39808ZM5.68231 9.09481C5.37252 9.47561 5.21883 9.95981 5.25229 10.4496L7.24764 10.3132C7.24872 10.329 7.24376 10.3447 7.23377 10.3569L5.68231 9.09481ZM5.25229 10.4496C5.28575 10.9393 5.50387 11.3981 5.86257 11.7332L7.22796 10.2718C7.23953 10.2826 7.24656 10.2974 7.24764 10.3132L5.25229 10.4496ZM5.86257 11.7332C6.22126 12.0684 6.6938 12.2548 7.18469 12.255L7.18531 10.255C7.20114 10.255 7.21638 10.261 7.22796 10.2718L5.86257 11.7332ZM7.185 12.255H19.065V10.255H7.185V12.255ZM19.1237 12.2533L19.2512 12.2458L19.1338 10.2492L19.0063 10.2567L19.1237 12.2533ZM19.3183 12.2396C19.8088 12.1773 20.257 11.93 20.571 11.5481L19.0263 10.2778C19.0364 10.2654 19.0508 10.2575 19.0667 10.2554L19.3183 12.2396ZM20.571 11.5481C20.885 11.1662 21.0412 10.6787 21.0075 10.1855L19.0122 10.3217C19.0111 10.3058 19.0161 10.2901 19.0263 10.2778L20.571 11.5481ZM21.0075 10.1855C20.9739 9.69221 20.7529 9.23048 20.3899 8.89484L19.0321 10.3633C19.0204 10.3525 19.0133 10.3376 19.0122 10.3217L21.0075 10.1855ZM20.3899 8.89484C20.0268 8.55919 19.5492 8.37502 19.0548 8.38005L19.0752 10.3799C19.0592 10.3801 19.0438 10.3742 19.0321 10.3633L20.3899 8.89484Z" fill="black" mask="url(#path-1-inside-1_622_6172)"/>
</svg>
