<svg width="27" height="27" viewBox="0 0 27 27" fill="none" xmlns="http://www.w3.org/2000/svg">
<path d="M21.3679 22.8374H5.34387C4.58375 22.8374 3.85242 22.5466 3.29991 22.0246C2.7474 21.5025 2.41559 20.7889 2.37256 20.03L2.36798 19.8615V6.58442C2.36792 6.06238 2.56603 5.55978 2.92229 5.17819C3.27855 4.79661 3.76639 4.56449 4.2872 4.52876L4.42821 4.52419H18.6209C19.143 4.52412 19.6456 4.72224 20.0272 5.0785C20.4087 5.43476 20.6409 5.92259 20.6766 6.44341L20.6812 6.58442V7.27116H22.2836C22.8056 7.2711 23.3082 7.46922 23.6898 7.82547C24.0714 8.18173 24.3035 8.66957 24.3392 9.19038L24.3438 9.3314V19.8615C24.3439 20.6216 24.053 21.3529 23.531 21.9054C23.009 22.458 22.2953 22.7898 21.5364 22.8328L21.3679 22.8374ZM5.34387 21.4639H21.3679C21.7702 21.4638 22.1578 21.3125 22.4536 21.0399C22.7495 20.7673 22.9319 20.3934 22.9648 19.9924L22.9703 19.8615V9.3314C22.9703 9.16544 22.9102 9.00511 22.8011 8.88004C22.6921 8.75497 22.5414 8.67363 22.377 8.65106L22.2836 8.64465H20.6812V18.488C20.6812 18.6539 20.6211 18.8143 20.512 18.9393C20.4029 19.0644 20.2522 19.1458 20.0878 19.1683L19.9944 19.1747C19.8285 19.1747 19.6681 19.1146 19.5431 19.0056C19.418 18.8965 19.3367 18.7458 19.3141 18.5814L19.3077 18.488V6.58442C19.3077 6.41847 19.2476 6.25813 19.1385 6.13306C19.0294 6.00799 18.8787 5.92665 18.7143 5.90408L18.6209 5.89767H4.42821C4.26226 5.89768 4.10193 5.95778 3.97686 6.06686C3.85179 6.17594 3.77045 6.32661 3.74788 6.49102L3.74147 6.58442V19.8615C3.74148 20.2636 3.89271 20.6511 4.16513 20.9469C4.43754 21.2427 4.81123 21.4253 5.21202 21.4584L5.34387 21.4639ZM9.91851 12.7688C10.5503 12.7688 11.0631 13.2816 11.0631 13.9134V17.1145C11.0631 17.7463 10.5503 18.2591 9.91851 18.2591H6.71736C6.08556 18.2591 5.57279 17.7463 5.57279 17.1145V13.9134C5.57279 13.2816 6.08556 12.7688 6.71736 12.7688H9.91851ZM13.5848 16.8856H16.786C16.96 16.8856 17.1274 16.9517 17.2546 17.0705C17.3817 17.1893 17.459 17.3519 17.4709 17.5255C17.4827 17.6991 17.4283 17.8707 17.3185 18.0057C17.2087 18.1407 17.0517 18.2289 16.8794 18.2527L16.786 18.2591H13.5848C13.4108 18.259 13.2433 18.1929 13.1162 18.0741C12.989 17.9553 12.9117 17.7927 12.8999 17.6191C12.888 17.4455 12.9425 17.2739 13.0523 17.1389C13.1621 17.004 13.319 16.9157 13.4914 16.892L13.5848 16.8856ZM9.69051 14.1423H6.94628V16.8856H9.69051V14.1423ZM13.5848 12.7688H16.786C16.96 12.7688 17.1274 12.8349 17.2546 12.9537C17.3817 13.0725 17.459 13.2351 17.4709 13.4087C17.4827 13.5823 17.4283 13.7539 17.3185 13.8889C17.2087 14.0239 17.0517 14.1121 16.8794 14.1359L16.786 14.1423H13.5848C13.4096 14.1441 13.2403 14.0788 13.1116 13.9598C12.9829 13.8408 12.9046 13.6772 12.8927 13.5023C12.8807 13.3275 12.9361 13.1547 13.0474 13.0194C13.1587 12.884 13.3176 12.7963 13.4914 12.7743L13.5848 12.7688ZM6.25587 8.6419H16.786C16.96 8.64196 17.1274 8.70806 17.2546 8.82684C17.3817 8.94563 17.459 9.10825 17.4709 9.28184C17.4827 9.45543 17.4283 9.62706 17.3185 9.76203C17.2087 9.897 17.0517 9.98527 16.8794 10.009L16.786 10.0154H6.25587C6.08195 10.0151 5.91462 9.94885 5.78765 9.82999C5.66069 9.71113 5.58355 9.54852 5.57181 9.375C5.56007 9.20148 5.61461 9.02997 5.72441 8.89509C5.83421 8.76021 5.99109 8.67202 6.16339 8.64831L6.25587 8.6419Z" fill="#98F3FF"/>
</svg>
