<svg id="Layer_1" enable-background="new 0 0 512 512" height="512" viewBox="0 0 512 512" width="512" xmlns="http://www.w3.org/2000/svg"><path d="m472.212 122.51-208.712-120.5c-4.641-2.68-10.359-2.68-15 0l-208.712 120.5c-4.641 2.679-7.5 7.631-7.5 12.99v241c0 5.359 2.859 10.311 7.5 12.99l208.712 120.5c4.641 2.68 10.359 2.68 15 0l208.712-120.5c4.641-2.679 7.5-7.631 7.5-12.99v-241c0-5.359-2.858-10.311-7.5-12.99zm-272.445 181.69c0 8.284-6.716 15-15 15h-16.067c-6.056 0-11.517-3.641-13.846-9.231l-27.387-65.729v59.96c-.738 19.881-29.269 19.866-30 0v-96.4c0-8.284 6.716-15 15-15h16.067c6.056 0 11.517 3.641 13.846 9.231l27.387 65.73v-59.961c.738-19.881 29.269-19.866 30 0zm104.433-81.4h-48.2v26.233h32.133c19.881.738 19.866 29.269 0 30h-32.133v25.167c-.738 19.881-29.269 19.866-30 0v-96.4c0-8.284 6.716-15 15-15h63.2c19.881.738 19.866 29.269 0 30zm104.433 0h-17.133v81.4c-.738 19.881-29.269 19.866-30 0v-81.4h-17.133c-19.881-.738-19.866-29.269 0-30h64.267c19.88.738 19.865 29.269-.001 30z"/></svg>