<svg width="30" height="30" viewBox="0 0 30 30" fill="none" xmlns="http://www.w3.org/2000/svg">
<path d="M18.75 11.25H22.5M18.75 15H22.5M18.75 18.75H22.5M15 20C14.6175 19.2338 13.8337 18.75 12.9775 18.75H9.5225C8.66625 18.75 7.8825 19.2338 7.5 20M5 6.25H25C25.3315 6.25 25.6495 6.3817 25.8839 6.61612C26.1183 6.85054 26.25 7.16848 26.25 7.5V22.5C26.25 22.8315 26.1183 23.1495 25.8839 23.3839C25.6495 23.6183 25.3315 23.75 25 23.75H5C4.66848 23.75 4.35054 23.6183 4.11612 23.3839C3.8817 23.1495 3.75 22.8315 3.75 22.5V7.5C3.75 7.16848 3.8817 6.85054 4.11612 6.61612C4.35054 6.3817 4.66848 6.25 5 6.25ZM13.75 12.5C13.75 13.163 13.4866 13.7989 13.0178 14.2678C12.5489 14.7366 11.913 15 11.25 15C10.587 15 9.95107 14.7366 9.48223 14.2678C9.01339 13.7989 8.75 13.163 8.75 12.5C8.75 11.837 9.01339 11.2011 9.48223 10.7322C9.95107 10.2634 10.587 10 11.25 10C11.913 10 12.5489 10.2634 13.0178 10.7322C13.4866 11.2011 13.75 11.837 13.75 12.5Z" stroke="black" stroke-width="1.5" stroke-linecap="round" stroke-linejoin="round"/>
</svg>
