<svg width="32" height="32" viewBox="0 0 32 32" fill="none" xmlns="http://www.w3.org/2000/svg">
<path d="M15.9773 19.091C24.4455 19.091 31.3182 22.3023 31.3182 26.2501V31.3637H0.636383V26.2501C0.636383 22.3023 7.50911 19.091 15.9773 19.091ZM29.2727 26.2501C29.2727 23.4273 23.3205 21.1364 15.9773 21.1364C8.63411 21.1364 2.68184 23.4273 2.68184 26.2501V29.3183H29.2727V26.2501ZM15.9773 0.681885C17.876 0.681885 19.6969 1.43614 21.0395 2.77873C22.3821 4.12132 23.1364 5.94227 23.1364 7.84098C23.1364 9.73969 22.3821 11.5606 21.0395 12.9032C19.6969 14.2458 17.876 15.0001 15.9773 15.0001C14.0786 15.0001 12.2576 14.2458 10.9151 12.9032C9.57246 11.5606 8.8182 9.73969 8.8182 7.84098C8.8182 5.94227 9.57246 4.12132 10.9151 2.77873C12.2576 1.43614 14.0786 0.681885 15.9773 0.681885ZM15.9773 2.72734C14.6211 2.72734 13.3204 3.2661 12.3614 4.22509C11.4024 5.18408 10.8637 6.48476 10.8637 7.84098C10.8637 9.1972 11.4024 10.4979 12.3614 11.4569C13.3204 12.4159 14.6211 12.9546 15.9773 12.9546C17.3335 12.9546 18.6342 12.4159 19.5932 11.4569C20.5522 10.4979 21.0909 9.1972 21.0909 7.84098C21.0909 6.48476 20.5522 5.18408 19.5932 4.22509C18.6342 3.2661 17.3335 2.72734 15.9773 2.72734Z" fill="black"/>
</svg>
