<svg width="20" height="20" viewBox="0 0 20 20" fill="none" xmlns="http://www.w3.org/2000/svg">
<path d="M1 19L6 14M11.259 16.871C7.515 16.021 3.979 12.485 3.129 8.74105C2.994 8.14905 2.927 7.85305 3.122 7.37205C3.316 6.89205 3.555 6.74205 4.031 6.44505C5.107 5.77305 6.273 5.55905 7.482 5.66505C9.179 5.81605 10.028 5.89105 10.452 5.67005C10.875 5.45005 11.162 4.93405 11.738 3.90305L12.466 2.59605C12.946 1.73605 13.186 1.30505 13.751 1.10205C14.316 0.899049 14.656 1.02205 15.336 1.26805C16.1175 1.54866 16.8272 1.99865 17.4143 2.58577C18.0014 3.17288 18.4514 3.8826 18.732 4.66405C18.978 5.34405 19.101 5.68405 18.898 6.24905C18.695 6.81305 18.265 7.05305 17.404 7.53405L16.067 8.27905C15.037 8.85305 14.523 9.14105 14.302 9.56805C14.082 9.99605 14.162 10.826 14.322 12.486C14.44 13.706 14.237 14.88 13.556 15.97C13.258 16.446 13.109 16.684 12.628 16.879C12.148 17.073 11.852 17.006 11.259 16.871Z" stroke="black" stroke-width="1.5" stroke-linecap="round" stroke-linejoin="round"/>
</svg>
