<svg width="30" height="30" viewBox="0 0 30 30" fill="none" xmlns="http://www.w3.org/2000/svg">
<path d="M22.5 7.96875C22.5 7.45098 22.0803 7.03125 21.5625 7.03125C21.0447 7.03125 20.625 7.45098 20.625 7.96875V20.625C20.625 21.1428 21.0447 21.5625 21.5625 21.5625C22.0803 21.5625 22.5 21.1428 22.5 20.625V7.96875Z" stroke="#909090" stroke-miterlimit="10"/>
<path d="M12.2258 10.7814H11.7655C11.6254 10.7848 11.4925 10.8437 11.3958 10.9451C11.2991 11.0466 11.2466 11.1822 11.2499 11.3223V17.2717C11.2466 17.4118 11.2991 17.5474 11.3958 17.6488C11.4925 17.7503 11.6254 17.8092 11.7655 17.8126H12.2263L12.3749 17.8361L20.6249 20.5168V8.07715L12.3749 10.7579L12.2258 10.7814Z" stroke="#909090" stroke-miterlimit="10"/>
<path d="M6.97641 11.25H11.25V17.3438H6.97641C6.67582 17.3437 6.37818 17.2845 6.10048 17.1695C5.82278 17.0545 5.57045 16.8859 5.35791 16.6733C5.14536 16.4608 4.97676 16.2085 4.86173 15.9308C4.7467 15.6531 4.6875 15.3554 4.6875 15.0548V13.5389C4.6875 12.9319 4.92865 12.3497 5.35791 11.9204C5.78716 11.4912 6.36935 11.25 6.97641 11.25Z" stroke="#909090" stroke-miterlimit="10"/>
<path d="M9.87984 24.375H7.40109C7.35252 24.375 7.30443 24.3654 7.25956 24.3468C7.21469 24.3283 7.17392 24.301 7.13957 24.2667C7.10523 24.2323 7.07799 24.1916 7.0594 24.1467C7.04082 24.1018 7.03125 24.0537 7.03125 24.0052V17.3438H9.375V22.3927C9.37505 22.4619 9.39454 22.5298 9.43125 22.5886L10.1934 23.8073C10.2289 23.8634 10.2486 23.9279 10.2506 23.9941C10.2526 24.0604 10.2367 24.126 10.2047 24.184C10.1726 24.242 10.1256 24.2904 10.0684 24.324C10.0113 24.3576 9.94614 24.3752 9.87984 24.375Z" stroke="#909090" stroke-miterlimit="10"/>
<path d="M23.9062 14.0625H25.3125" stroke="#909090" stroke-miterlimit="10" stroke-linecap="round"/>
<path d="M23.9062 11.25L25.3125 10.3125" stroke="#909090" stroke-miterlimit="10" stroke-linecap="round"/>
<path d="M23.9062 16.875L25.3125 17.8125" stroke="#909090" stroke-miterlimit="10" stroke-linecap="round"/>
</svg>
