<svg width="17" height="17" viewBox="0 0 17 17" fill="none" xmlns="http://www.w3.org/2000/svg">
<path d="M8.54867 15.5834C7.5688 15.5834 6.64797 15.3974 5.78617 15.0252C4.92436 14.6531 4.17471 14.1486 3.53721 13.5115C2.89971 12.874 2.39514 12.1244 2.0235 11.2626C1.65186 10.4008 1.4658 9.47994 1.46533 8.50008C1.46533 7.52022 1.65139 6.59939 2.0235 5.73758C2.39561 4.87578 2.90018 4.12612 3.53721 3.48862C4.17471 2.85112 4.92436 2.34655 5.78617 1.97491C6.64797 1.60328 7.5688 1.41722 8.54867 1.41675C9.52853 1.41675 10.4494 1.6028 11.3112 1.97491C12.173 2.34703 12.9226 2.8516 13.5601 3.48862C14.1976 4.12612 14.7024 4.87578 15.0745 5.73758C15.4467 6.59939 15.6325 7.52022 15.632 8.50008C15.632 9.47994 15.4459 10.4008 15.0738 11.2626C14.7017 12.1244 14.1972 12.874 13.5601 13.5115C12.9226 14.149 12.173 14.6538 11.3112 15.026C10.4494 15.3981 9.52853 15.5839 8.54867 15.5834ZM7.84033 14.1313V12.7501C7.45075 12.7501 7.11736 12.6115 6.84017 12.3343C6.56297 12.0571 6.42414 11.7235 6.42367 11.3334V10.6251L3.02367 7.22508C2.98825 7.43758 2.9559 7.65008 2.92662 7.86258C2.89735 8.07508 2.88247 8.28758 2.882 8.50008C2.882 9.92855 3.35139 11.1799 4.29017 12.2542C5.22894 13.3286 6.41233 13.9542 7.84033 14.1313ZM12.7278 12.3251C12.9639 12.0654 13.1764 11.7851 13.3653 11.4843C13.5542 11.1835 13.7105 10.8706 13.8342 10.5457C13.9584 10.2209 14.0529 9.88723 14.1176 9.54487C14.1823 9.20251 14.2149 8.85425 14.2153 8.50008C14.2153 7.34314 13.8935 6.28654 13.2499 5.33029C12.6062 4.37404 11.7475 3.68341 10.6737 3.25841V3.54175C10.6737 3.93133 10.5351 4.26496 10.2579 4.54262C9.98068 4.82029 9.64705 4.95889 9.257 4.95841H7.84033V6.37508C7.84033 6.57578 7.77233 6.74412 7.63633 6.88012C7.50033 7.01612 7.33222 7.08389 7.132 7.08341H5.71533V8.50008H9.96533C10.166 8.50008 10.3344 8.56808 10.4704 8.70408C10.6064 8.84008 10.6741 9.00819 10.6737 9.20841V11.3334H11.382C11.6889 11.3334 11.9664 11.425 12.2143 11.6082C12.4622 11.7915 12.6334 12.0304 12.7278 12.3251Z" fill="#606060"/>
</svg>
