<svg width="30" height="30" viewBox="0 0 30 30" fill="none" xmlns="http://www.w3.org/2000/svg">
<path d="M19.2703 12.3445L13.6453 8.59453C13.5041 8.50031 13.3399 8.4462 13.1704 8.43799C13.0008 8.42977 12.8322 8.46776 12.6825 8.54788C12.5328 8.62801 12.4077 8.74728 12.3206 8.89295C12.2334 9.03862 12.1874 9.20523 12.1875 9.375V16.875C12.1874 17.0448 12.2334 17.2114 12.3206 17.357C12.4077 17.5027 12.5328 17.622 12.6825 17.7021C12.8322 17.7822 13.0008 17.8202 13.1704 17.812C13.3399 17.8038 13.5041 17.7497 13.6453 17.6555L19.2703 13.9055C19.3989 13.8199 19.5044 13.7039 19.5773 13.5677C19.6502 13.4315 19.6884 13.2795 19.6884 13.125C19.6884 12.9705 19.6502 12.8185 19.5773 12.6823C19.5044 12.5461 19.3989 12.4301 19.2703 12.3445ZM14.0625 15.123V11.1328L17.0602 13.125L14.0625 15.123ZM25.3125 4.6875H4.6875C4.19022 4.6875 3.71331 4.88504 3.36167 5.23667C3.01004 5.58831 2.8125 6.06522 2.8125 6.5625V19.6875C2.8125 20.1848 3.01004 20.6617 3.36167 21.0133C3.71331 21.365 4.19022 21.5625 4.6875 21.5625H25.3125C25.8098 21.5625 26.2867 21.365 26.6383 21.0133C26.99 20.6617 27.1875 20.1848 27.1875 19.6875V6.5625C27.1875 6.06522 26.99 5.58831 26.6383 5.23667C26.2867 4.88504 25.8098 4.6875 25.3125 4.6875ZM25.3125 19.6875H4.6875V6.5625H25.3125V19.6875ZM27.1875 24.375C27.1875 24.6236 27.0887 24.8621 26.9129 25.0379C26.7371 25.2137 26.4986 25.3125 26.25 25.3125H3.75C3.50136 25.3125 3.2629 25.2137 3.08709 25.0379C2.91127 24.8621 2.8125 24.6236 2.8125 24.375C2.8125 24.1264 2.91127 23.8879 3.08709 23.7121C3.2629 23.5363 3.50136 23.4375 3.75 23.4375H26.25C26.4986 23.4375 26.7371 23.5363 26.9129 23.7121C27.0887 23.8879 27.1875 24.1264 27.1875 24.375Z" fill="#909090"/>
</svg>
