<svg width="25" height="24" viewBox="0 0 25 24" fill="none" xmlns="http://www.w3.org/2000/svg">
<g clip-path="url(#clip0_453_4429)">
<path d="M7.5 3C8.05228 3 8.5 2.55228 8.5 2C8.5 1.44772 8.05228 1 7.5 1C6.94772 1 6.5 1.44772 6.5 2C6.5 2.55228 6.94772 3 7.5 3Z" fill="black"/>
<path d="M3.5 7C4.05228 7 4.5 6.55228 4.5 6C4.5 5.44772 4.05228 5 3.5 5C2.94772 5 2.5 5.44772 2.5 6C2.5 6.55228 2.94772 7 3.5 7Z" fill="black"/>
<path d="M12.5 2C13.0523 2 13.5 1.55228 13.5 1C13.5 0.447715 13.0523 0 12.5 0C11.9477 0 11.5 0.447715 11.5 1C11.5 1.55228 11.9477 2 12.5 2Z" fill="black"/>
<path d="M17.5 3C18.0523 3 18.5 2.55228 18.5 2C18.5 1.44772 18.0523 1 17.5 1C16.9477 1 16.5 1.44772 16.5 2C16.5 2.55228 16.9477 3 17.5 3Z" fill="black"/>
<path d="M21.5 7C22.0523 7 22.5 6.55228 22.5 6C22.5 5.44772 22.0523 5 21.5 5C20.9477 5 20.5 5.44772 20.5 6C20.5 6.55228 20.9477 7 21.5 7Z" fill="black"/>
<path d="M18 24L17.881 23.971C16.0936 23.4912 14.5081 22.4489 13.359 20.9983C12.2098 19.5477 11.558 17.7657 11.5 15.916V11.698L18 9L24.5 11.698V15.916C24.442 17.7657 23.7902 19.5477 22.641 20.9983C21.4919 22.4489 19.9064 23.4912 18.119 23.971L18 24ZM13.5 12.865V16.015C13.5318 17.3544 13.9832 18.6501 14.7906 19.7194C15.5979 20.7887 16.7205 21.5776 18 21.975C19.2795 21.5776 20.4021 20.7887 21.2094 19.7194C22.0168 18.6501 22.4682 17.3544 22.5 16.015V12.865L18 11.072L13.5 12.865Z" fill="black"/>
<path d="M12.5 24C13.0523 24 13.5 23.5523 13.5 23C13.5 22.4477 13.0523 22 12.5 22C11.9477 22 11.5 22.4477 11.5 23C11.5 23.5523 11.9477 24 12.5 24Z" fill="black"/>
<path d="M10.9 10.3998C11.1122 10.3998 11.3157 10.3155 11.4657 10.1654C11.6157 10.0154 11.7 9.81193 11.7 9.59976V7.99976H13.3C13.7058 7.99802 14.0959 7.84211 14.3911 7.56361C14.6863 7.2851 14.8646 6.90482 14.89 6.49976C15.8188 6.90972 16.6284 7.54865 17.243 8.35676L18.5 7.83276L19.58 8.28276C18.948 7.07611 18.0183 6.05089 16.879 5.30431C15.7397 4.55772 14.4286 4.11452 13.07 4.01673C11.7114 3.91894 10.3503 4.1698 9.11579 4.74552C7.88131 5.32124 6.81435 6.20274 6.01607 7.30644C5.2178 8.41014 4.71466 9.69945 4.55439 11.0521C4.39411 12.4048 4.582 13.776 5.10024 15.0357C5.61848 16.2954 6.44989 17.4018 7.51564 18.2501C8.58139 19.0983 9.84615 19.6603 11.19 19.8828C10.9066 19.1751 10.7086 18.4362 10.6 17.6818C9.22463 17.23 8.0607 16.2931 7.32554 15.046C6.59039 13.7989 6.33426 12.3269 6.605 10.9048L10.1 14.3998V15.1998C10.1032 15.5849 10.2452 15.9559 10.5 16.2448V11.9998H9.3V10.3998H10.9Z" fill="black"/>
<path d="M3.5 19C4.05228 19 4.5 18.5523 4.5 18C4.5 17.4477 4.05228 17 3.5 17C2.94772 17 2.5 17.4477 2.5 18C2.5 18.5523 2.94772 19 3.5 19Z" fill="black"/>
<path d="M7.5 23C8.05228 23 8.5 22.5523 8.5 22C8.5 21.4477 8.05228 21 7.5 21C6.94772 21 6.5 21.4477 6.5 22C6.5 22.5523 6.94772 23 7.5 23Z" fill="black"/>
<path d="M1.5 13C2.05228 13 2.5 12.5523 2.5 12C2.5 11.4477 2.05228 11 1.5 11C0.947715 11 0.5 11.4477 0.5 12C0.5 12.5523 0.947715 13 1.5 13Z" fill="black"/>
</g>
<defs>
<clipPath id="clip0_453_4429">
<rect width="24" height="24" fill="white" transform="translate(0.5)"/>
</clipPath>
</defs>
</svg>
