<svg width="25" height="24" viewBox="0 0 25 24" fill="none" xmlns="http://www.w3.org/2000/svg">
<path d="M23.2319 9.97021L15.7319 2.47021C15.6271 2.36526 15.4935 2.29375 15.348 2.26473C15.2025 2.23572 15.0517 2.25049 14.9146 2.30719C14.7775 2.36389 14.6603 2.45996 14.5779 2.58326C14.4954 2.70657 14.4513 2.85156 14.4513 2.9999V6.78271C12.0194 6.99083 9.33345 8.18146 7.12377 10.0555C4.46314 12.313 2.80658 15.2221 2.45877 18.2465C2.43159 18.4816 2.47926 18.7193 2.59501 18.9258C2.71075 19.1322 2.88867 19.2969 3.10345 19.3964C3.31822 19.4959 3.5589 19.5251 3.79124 19.4799C4.02358 19.4347 4.23573 19.3174 4.39752 19.1446C5.42877 18.0468 9.09814 14.5752 14.4513 14.2696V17.9999C14.4513 18.1482 14.4954 18.2932 14.5779 18.4165C14.6603 18.5398 14.7775 18.6359 14.9146 18.6926C15.0517 18.7493 15.2025 18.7641 15.348 18.7351C15.4935 18.706 15.6271 18.6345 15.7319 18.5296L23.2319 11.0296C23.3722 10.889 23.4509 10.6985 23.4509 10.4999C23.4509 10.3013 23.3722 10.1108 23.2319 9.97021ZM15.9513 16.1896V13.4999C15.9513 13.301 15.8722 13.1102 15.7316 12.9696C15.5909 12.8289 15.4002 12.7499 15.2013 12.7499C12.5688 12.7499 10.0047 13.4371 7.58033 14.7936C6.3456 15.4876 5.19517 16.3219 4.15189 17.2799C4.69564 15.0449 6.06627 12.9196 8.09408 11.1993C10.271 9.35333 12.9278 8.2499 15.2013 8.2499C15.4002 8.2499 15.5909 8.17088 15.7316 8.03023C15.8722 7.88957 15.9513 7.69881 15.9513 7.4999V4.81115L21.641 10.4999L15.9513 16.1896Z" fill="black"/>
</svg>
