<svg width="39" height="39" viewBox="0 0 39 39" fill="none" xmlns="http://www.w3.org/2000/svg">
<path d="M25.6791 5.556C25.5346 5.42049 25.3536 5.33021 25.1584 5.29627C24.9632 5.26233 24.7624 5.2862 24.5806 5.36496C24.3988 5.44371 24.2441 5.5739 24.1354 5.73951C24.0266 5.90511 23.9687 6.0989 23.9688 6.297V10.743C23.6779 10.7495 23.3391 10.7674 22.9613 10.8015C21.7141 10.9169 20.0232 11.2289 18.2682 12.0243C14.6916 13.6452 11.0159 17.2032 10.1628 24.6668C10.1395 24.8711 10.1789 25.0777 10.2756 25.2592C10.3723 25.4406 10.5218 25.5885 10.7043 25.6832C10.8869 25.7778 11.0939 25.8148 11.2979 25.7893C11.502 25.7638 11.6934 25.677 11.8471 25.5402C15.3693 22.4089 18.6696 21.0609 21.0576 20.4873C21.9859 20.259 22.9347 20.1237 23.8899 20.0835L23.9688 20.0811V24.5782C23.9687 24.7763 24.0266 24.9701 24.1354 25.1357C24.2441 25.3013 24.3988 25.4315 24.5806 25.5103C24.7624 25.589 24.9632 25.6129 25.1584 25.579C25.3536 25.545 25.5346 25.4547 25.6791 25.3192L35.4291 16.1786C35.5304 16.0836 35.6112 15.9689 35.6664 15.8414C35.7216 15.7139 35.7501 15.5765 35.7501 15.4376C35.7501 15.2987 35.7216 15.1613 35.6664 15.0338C35.6112 14.9064 35.5304 14.7916 35.4291 14.6966L25.6791 5.556ZM24.8674 12.7905L24.8836 12.7921H24.8853C25.0264 12.8061 25.168 12.7903 25.3027 12.7459C25.4374 12.7014 25.5612 12.6293 25.6663 12.5341C25.7714 12.4389 25.8554 12.3227 25.9128 12.193C25.9703 12.0634 26 11.9232 26 11.7814V8.64106L33.2491 15.4376L26 22.2342V19.0939C26 18.582 25.6311 18.1514 25.1103 18.0864H25.1079L25.1046 18.0856L25.0965 18.0847L25.0737 18.0823C24.9629 18.0715 24.8518 18.0633 24.7406 18.0579C24.4337 18.0434 24.1263 18.0418 23.8193 18.0531C23.0344 18.0807 21.9261 18.1912 20.5831 18.5129C18.4056 19.0354 15.6276 20.1144 12.6384 22.2935C13.8458 17.3535 16.5896 15.0151 19.1059 13.8744C20.6017 13.1967 22.0594 12.9254 23.1481 12.8246C23.6909 12.7742 24.1361 12.7677 24.4408 12.7726C24.5831 12.7748 24.7254 12.7807 24.8674 12.7905ZM9.95312 6.50012C8.60632 6.50012 7.31468 7.03514 6.36235 7.98747C5.41002 8.9398 4.875 10.2314 4.875 11.5782V29.047C4.875 30.3938 5.41002 31.6854 6.36235 32.6378C7.31468 33.5901 8.60632 34.1251 9.95312 34.1251H27.4219C28.7687 34.1251 30.0603 33.5901 31.0127 32.6378C31.965 31.6854 32.5 30.3938 32.5 29.047V27.2189C32.5 26.9495 32.393 26.6912 32.2025 26.5007C32.0121 26.3102 31.7537 26.2032 31.4844 26.2032C31.215 26.2032 30.9567 26.3102 30.7662 26.5007C30.5758 26.6912 30.4688 26.9495 30.4688 27.2189V29.047C30.4688 29.8551 30.1477 30.6301 29.5763 31.2015C29.0049 31.7729 28.23 32.0939 27.4219 32.0939H9.95312C9.14504 32.0939 8.37006 31.7729 7.79866 31.2015C7.22726 30.6301 6.90625 29.8551 6.90625 29.047V11.5782C6.90625 10.7702 7.22726 9.99518 7.79866 9.42378C8.37006 8.85238 9.14504 8.53137 9.95312 8.53137H16.6562C16.9256 8.53137 17.1839 8.42437 17.3744 8.2339C17.5649 8.04343 17.6719 7.78511 17.6719 7.51575C17.6719 7.24638 17.5649 6.98806 17.3744 6.79759C17.1839 6.60712 16.9256 6.50012 16.6562 6.50012H9.95312Z" fill="white"/>
</svg>
