<svg fill="none" height="24" viewBox="0 0 24 24" width="24" xmlns="http://www.w3.org/2000/svg"><path d="m15.4708 3.45603c-1.1097-1.07719-2.9689-.29084-2.9689 1.25572v1.55753c0 .12621-.1222.29826-.3529.30604-5.58583.18852-10.14314 4.78148-10.14314 10.50728v1.1872c0 .8392 1.01179 1.2626 1.60955.6736.00575-.0057.01141-.0114.01698-.0173l2.14653-2.2564c1.7619-1.731 4.08248-2.4136 6.56458-2.1845.0661.0061.1584.0721.1584.209v1.678c0 1.5468 1.8597 2.333 2.9693 1.2553l6.0045-5.832c.7078-.6874.7077-1.82379-.0003-2.51103z" fill="rgb(0,0,0)"/></svg>