<svg width="20" height="20" viewBox="0 0 20 20" fill="none" xmlns="http://www.w3.org/2000/svg">
<path d="M19.7059 4.259H15.3779V0.212C16.3822 0.466641 17.3056 0.971259 18.0624 1.67887C18.8191 2.38648 19.3845 3.27407 19.7059 4.259ZM4.64989 0.212V4.259H0.274894C0.599666 3.26798 1.1719 2.3762 1.93747 1.66803C2.70304 0.959861 3.63662 0.458714 4.64989 0.212ZM13.6129 0H6.41489V4.259H13.6129V0ZM19.9999 6.024H0.0038938C-0.00162346 6.07452 -0.00162346 6.12548 0.0038938 6.176V13.823C0.00388042 15.4569 0.651237 17.0243 1.80425 18.182C2.95726 19.3397 4.52199 19.9934 6.15589 20H13.8009C15.4382 19.9974 17.0077 19.3457 18.1654 18.1878C19.3231 17.0299 19.9745 15.4603 19.9769 13.823V6.176C19.9901 6.12633 19.9978 6.07536 19.9999 6.024ZM13.6719 13.164C13.5795 13.3381 13.4514 13.4908 13.2959 13.612L9.76589 16.082C9.57875 16.2127 9.35962 16.2901 9.13189 16.306H9.01389C8.80663 16.3091 8.60176 16.2614 8.41716 16.1671C8.23256 16.0728 8.07386 15.9348 7.95489 15.765C7.82489 15.57 7.75489 15.34 7.75489 15.105V10.495C7.75389 10.265 7.81889 10.04 7.94389 9.847C8.07389 9.67 8.24289 9.525 8.43789 9.424C8.63789 9.334 8.85389 9.289 9.07289 9.294C9.28389 9.304 9.48989 9.364 9.67289 9.471L13.1999 11.6C13.3725 11.6997 13.5171 11.8415 13.6201 12.0122C13.7231 12.1828 13.7811 12.3768 13.7889 12.576C13.8049 12.78 13.7639 12.983 13.6709 13.165" fill="#008BCB"/>
</svg>
