<svg width="30" height="30" viewBox="0 0 30 30" fill="none" xmlns="http://www.w3.org/2000/svg">
<g id="mage:video-player">
<g id="Group">
<path id="Vector" d="M3.995 9.84168H26.005M19.7587 9.84168V3.59668M10.2412 9.84168V3.59668M12.675 14.9104V21.0629C12.675 21.1892 12.715 21.3129 12.7887 21.4204C12.8637 21.5267 12.97 21.6129 13.0962 21.6692C13.2235 21.7249 13.3627 21.7475 13.501 21.7351C13.6393 21.7226 13.7723 21.6754 13.8875 21.5979L18.635 18.2854C18.7272 18.2214 18.8027 18.136 18.855 18.0367C18.9042 17.9407 18.9278 17.8337 18.9234 17.7259C18.9191 17.6181 18.8869 17.5133 18.83 17.4217C18.7685 17.3271 18.6865 17.2476 18.59 17.1892L13.8425 14.3492C13.7264 14.2817 13.5956 14.2436 13.4614 14.2381C13.3272 14.2327 13.1937 14.2601 13.0725 14.3179C12.9561 14.3741 12.8562 14.4593 12.7825 14.5654C12.7135 14.6673 12.6761 14.7874 12.675 14.9104Z" stroke="black" stroke-width="1.5" stroke-linecap="round" stroke-linejoin="round"/>
<path id="Vector_2" d="M19.0625 3.4375H10.9375C6.79536 3.4375 3.4375 6.79536 3.4375 10.9375V19.0625C3.4375 23.2046 6.79536 26.5625 10.9375 26.5625H19.0625C23.2046 26.5625 26.5625 23.2046 26.5625 19.0625V10.9375C26.5625 6.79536 23.2046 3.4375 19.0625 3.4375Z" stroke="black" stroke-width="1.5"/>
</g>
</g>
</svg>
