<svg width="16" height="16" viewBox="0 0 16 16" fill="none" xmlns="http://www.w3.org/2000/svg">
<path d="M10.634 6.06099C11.4468 7.14513 11.4468 9.24513 10.634 10.3293M12.4633 3.92684C14.895 6.24879 14.9096 10.1567 12.4633 12.4634M2.09741 9.9994V6.39026C2.09741 6.04026 2.37058 5.75611 2.70717 5.75611H4.89375C4.97444 5.75582 5.05424 5.7392 5.12833 5.70723C5.20242 5.67527 5.26927 5.62863 5.32485 5.57013L7.15412 3.50428C7.53827 3.10428 8.19497 3.38782 8.19497 3.95306V12.4372C8.19497 13.0067 7.53034 13.2878 7.14863 12.8799L5.32546 10.8256C5.26972 10.7655 5.2022 10.7174 5.12709 10.6845C5.05198 10.6515 4.97089 10.6344 4.88888 10.6342H2.70717C2.37058 10.6342 2.09741 10.35 2.09741 9.9994Z" stroke="white" stroke-linecap="round" stroke-linejoin="round"/>
</svg>
