<svg width="25" height="30" viewBox="0 0 25 30" fill="none" xmlns="http://www.w3.org/2000/svg">
<g clip-path="url(#clip0_331_4676)">
<path d="M16.6788 5.15814C16.6788 3.986 15.2784 3.37957 14.4234 4.181L9.13378 9.14171C8.78618 9.46742 8.32764 9.64861 7.85128 9.6485H4.62521C3.70169 9.6485 2.81599 10.0154 2.16296 10.6684C1.50993 11.3214 1.14307 12.2071 1.14307 13.1306V16.8721C1.14307 17.7956 1.50993 18.6813 2.16296 19.3343C2.81599 19.9873 3.70169 20.3542 4.62521 20.3542H7.85235C8.32807 20.3542 8.78664 20.5364 9.13378 20.861L14.4234 25.8174C15.2795 26.6189 16.6788 26.0124 16.6788 24.8403V5.15814ZM10.2331 10.3139L15.0716 5.77528V24.221L10.2331 19.6867C9.58772 19.0822 8.73658 18.7459 7.85235 18.746H4.62521C4.12793 18.746 3.65101 18.5485 3.29938 18.1968C2.94775 17.8452 2.75021 17.3683 2.75021 16.871V13.1296C2.75021 12.0946 3.59021 11.2546 4.62521 11.2546H7.85128C8.73617 11.2543 9.58778 10.9172 10.2331 10.3117M23.3238 5.62528C23.1812 5.47257 22.9847 5.38141 22.776 5.37114C22.5673 5.36087 22.3628 5.43229 22.2059 5.57025C22.049 5.70822 21.952 5.90189 21.9354 6.11018C21.9189 6.31847 21.9842 6.52501 22.1174 6.686C24.1417 8.98198 25.256 11.9393 25.2502 15.0003C25.2502 18.1856 24.0684 21.0935 22.1174 23.3114C22.0439 23.39 21.9871 23.4825 21.9501 23.5835C21.9131 23.6845 21.8968 23.7919 21.9021 23.8993C21.9073 24.0067 21.9341 24.112 21.9809 24.2089C22.0276 24.3058 22.0933 24.3923 22.1741 24.4633C22.2548 24.5343 22.349 24.5884 22.4511 24.6223C22.5532 24.6563 22.661 24.6694 22.7682 24.6609C22.8754 24.6524 22.9799 24.6224 23.0753 24.5728C23.1707 24.5232 23.2552 24.4549 23.3238 24.3721C25.6054 21.7838 26.8621 18.4507 26.8574 15.0003C26.8624 11.5495 25.6056 8.21601 23.3238 5.62743M20.8059 8.89528C20.7433 8.80901 20.6641 8.73606 20.5729 8.6807C20.4818 8.62534 20.3806 8.58868 20.2751 8.57283C20.1697 8.55699 20.0621 8.5623 19.9587 8.58843C19.8554 8.61457 19.7582 8.66102 19.673 8.72508C19.5877 8.78914 19.5161 8.86952 19.4622 8.96154C19.4084 9.05357 19.3734 9.15539 19.3592 9.26108C19.3451 9.36677 19.3522 9.47421 19.38 9.57715C19.4078 9.68008 19.4558 9.77645 19.5213 9.86064C20.635 11.3424 21.2357 13.1466 21.2324 15.0003C21.2324 16.9289 20.5959 18.7074 19.5213 20.1399C19.458 20.2243 19.4119 20.3204 19.3857 20.4226C19.3595 20.5249 19.3537 20.6312 19.3686 20.7357C19.3836 20.8402 19.4189 20.9407 19.4727 21.0315C19.5264 21.1223 19.5976 21.2016 19.682 21.2649C19.7664 21.3282 19.8625 21.3743 19.9647 21.4005C20.0669 21.4267 20.1733 21.4325 20.2778 21.4176C20.3822 21.4026 20.4827 21.3673 20.5736 21.3135C20.6644 21.2598 20.7437 21.1886 20.807 21.1042C22.1294 19.3443 22.8428 17.2017 22.8395 15.0003C22.8428 12.7989 22.1294 10.6563 20.807 8.89635" fill="black"/>
</g>
<path d="M19 9C20.5092 10.8571 22.6222 15.8571 19 21" stroke="black" stroke-linecap="round"/>
<path d="M21 6C23.2639 8.78571 26.4333 16.2857 21 24" stroke="black" stroke-linecap="round"/>
<defs>
<clipPath id="clip0_331_4676">
<rect width="18" height="30" fill="white"/>
</clipPath>
</defs>
</svg>
