<svg width="24" height="24" viewBox="0 0 24 24" fill="none" xmlns="http://www.w3.org/2000/svg">
<path d="M5.25 4C4.38805 4 3.5614 4.34241 2.9519 4.9519C2.34241 5.5614 2 6.38805 2 7.25V12.81C2.44613 12.3811 2.95123 12.0181 3.5 11.732V7.25C3.5 6.284 4.284 5.5 5.25 5.5H12.75C13.716 5.5 14.5 6.284 14.5 7.25V14.75C14.5001 15.1844 14.3386 15.6034 14.047 15.9254C13.7553 16.2473 13.3543 16.4493 12.922 16.492C12.999 16.9881 13.0191 17.4913 12.982 17.992C13.8017 17.9333 14.5688 17.5663 15.1288 16.9647C15.6888 16.3632 16.0001 15.5718 16 14.75V14.438L19.258 16.688C20.418 17.488 22.002 16.658 22.002 15.248V6.751C22.002 5.341 20.418 4.509 19.258 5.311L16 7.562V7.25C16 6.38805 15.6576 5.5614 15.0481 4.9519C14.4386 4.34241 13.612 4 12.75 4H5.25ZM16 9.384L20.11 6.546C20.1475 6.52009 20.1915 6.50495 20.237 6.50221C20.2825 6.49947 20.3279 6.50924 20.3683 6.53045C20.4087 6.55167 20.4425 6.58353 20.466 6.62258C20.4896 6.66163 20.502 6.70639 20.502 6.752V15.247C20.502 15.2926 20.4896 15.3374 20.466 15.3764C20.4425 15.4155 20.4087 15.4473 20.3683 15.4685C20.3279 15.4898 20.2825 15.4995 20.237 15.4968C20.1915 15.4941 20.1475 15.4789 20.11 15.453L16 12.615V9.384ZM12 17.5C12 16.7777 11.8577 16.0625 11.5813 15.3952C11.3049 14.728 10.8998 14.1216 10.3891 13.6109C9.87837 13.1002 9.27205 12.6951 8.60476 12.4187C7.93747 12.1423 7.22227 12 6.5 12C5.77773 12 5.06253 12.1423 4.39524 12.4187C3.72795 12.6951 3.12163 13.1002 2.61091 13.6109C2.10019 14.1216 1.69506 14.728 1.41866 15.3952C1.14226 16.0625 1 16.7777 1 17.5C1 18.9587 1.57946 20.3576 2.61091 21.3891C3.64236 22.4205 5.04131 23 6.5 23C7.95869 23 9.35764 22.4205 10.3891 21.3891C11.4205 20.3576 12 18.9587 12 17.5ZM7 18L7.001 20.503C7.001 20.6356 6.94832 20.7628 6.85455 20.8566C6.76079 20.9503 6.63361 21.003 6.501 21.003C6.36839 21.003 6.24121 20.9503 6.14745 20.8566C6.05368 20.7628 6.001 20.6356 6.001 20.503V18H3.496C3.36339 18 3.23621 17.9473 3.14245 17.8536C3.04868 17.7598 2.996 17.6326 2.996 17.5C2.996 17.3674 3.04868 17.2402 3.14245 17.1464C3.23621 17.0527 3.36339 17 3.496 17H6V14.5C6 14.3674 6.05268 14.2402 6.14645 14.1464C6.24021 14.0527 6.36739 14 6.5 14C6.63261 14 6.75979 14.0527 6.85355 14.1464C6.94732 14.2402 7 14.3674 7 14.5V17H9.497C9.62961 17 9.75679 17.0527 9.85055 17.1464C9.94432 17.2402 9.997 17.3674 9.997 17.5C9.997 17.6326 9.94432 17.7598 9.85055 17.8536C9.75679 17.9473 9.62961 18 9.497 18H7Z" fill="#008BCB"/>
</svg>
