<svg width="30" height="30" viewBox="0 0 30 30" fill="none" xmlns="http://www.w3.org/2000/svg">
<path fill-rule="evenodd" clip-rule="evenodd" d="M13.4454 20.6218C13.9383 20.4176 14.4665 20.3125 15 20.3125C15.5335 20.3125 16.0617 20.4176 16.5546 20.6218C17.0475 20.8259 17.4954 21.1251 17.8726 21.5024C18.2499 21.8796 18.5491 22.3275 18.7532 22.8204C18.9574 23.3133 19.0625 23.8415 19.0625 24.375C19.0625 24.8927 18.6427 25.3125 18.125 25.3125H11.875C11.3572 25.3125 10.9375 24.8927 10.9375 24.375C10.9375 23.8415 11.0426 23.3133 11.2467 22.8204C11.4509 22.3275 11.7501 21.8796 12.1274 21.5024C12.5046 21.1251 12.9525 20.8259 13.4454 20.6218ZM15 22.1875C14.7127 22.1875 14.4283 22.2441 14.1629 22.354C13.8975 22.464 13.6564 22.6251 13.4532 22.8282C13.276 23.0054 13.1307 23.2115 13.0236 23.4375H16.9764C16.8693 23.2115 16.724 23.0054 16.5468 22.8282C16.3436 22.6251 16.1025 22.464 15.8371 22.354C15.5717 22.2441 15.2873 22.1875 15 22.1875Z" fill="#909090"/>
<path fill-rule="evenodd" clip-rule="evenodd" d="M15 15.9375C14.4822 15.9375 14.0625 16.3572 14.0625 16.875C14.0625 17.3928 14.4822 17.8125 15 17.8125C15.5178 17.8125 15.9375 17.3928 15.9375 16.875C15.9375 16.3572 15.5178 15.9375 15 15.9375ZM12.1875 16.875C12.1875 15.3218 13.4468 14.0625 15 14.0625C16.5532 14.0625 17.8125 15.3218 17.8125 16.875C17.8125 18.4282 16.5532 19.6875 15 19.6875C13.4468 19.6875 12.1875 18.4282 12.1875 16.875Z" fill="#909090"/>
<path fill-rule="evenodd" clip-rule="evenodd" d="M18.7565 12.4935C16.6819 10.4188 13.3181 10.4188 11.2435 12.4935C9.16884 14.5681 9.16884 17.9319 11.2435 20.0065C11.6096 20.3726 11.6096 20.9663 11.2435 21.3324C10.8774 21.6985 10.2838 21.6985 9.91768 21.3324C7.11077 18.5254 7.11077 13.9746 9.91768 11.1677C12.7246 8.36077 17.2754 8.36077 20.0824 11.1677C22.8893 13.9746 22.8893 18.5254 20.0824 21.3324C19.7163 21.6985 19.1226 21.6985 18.7565 21.3324C18.3904 20.9663 18.3904 20.3726 18.7565 20.0065C20.8311 17.9319 20.8311 14.5681 18.7565 12.4935Z" fill="#909090"/>
<path fill-rule="evenodd" clip-rule="evenodd" d="M21.4 9.28216C17.8626 5.65595 12.1373 5.65595 8.60001 9.28216C5.04998 12.9214 5.05 18.8311 8.60001 22.4704C8.96156 22.841 8.9542 23.4345 8.58357 23.7961C8.21293 24.1576 7.61938 24.1502 7.25785 23.7796C2.99738 19.4121 2.99738 12.3404 7.25785 7.97288C11.531 3.59237 18.469 3.59237 22.7421 7.97288C24.2946 9.56435 25.2809 11.5156 25.702 13.561C25.8064 14.0681 25.4799 14.5639 24.9727 14.6682C24.4656 14.7726 23.9699 14.4461 23.8655 13.939C23.5136 12.23 22.6915 10.6062 21.4 9.28216ZM24.857 17.8481C25.3551 17.9895 25.6442 18.5079 25.5029 19.006C25.0071 20.7524 24.0869 22.4011 22.7421 23.7796C22.3806 24.1502 21.787 24.1576 21.4164 23.7961C21.0457 23.4345 21.0384 22.841 21.4 22.4704C22.5191 21.3231 23.2855 19.9511 23.6991 18.494C23.8405 17.9959 24.3589 17.7067 24.857 17.8481Z" fill="#909090"/>
</svg>
