<svg width="18" height="19" viewBox="0 0 18 19" fill="none" xmlns="http://www.w3.org/2000/svg">
<path fill-rule="evenodd" clip-rule="evenodd" d="M9.45 9.12725L12.3682 12.0455L11.7323 12.6823L8.55 9.5V5H9.45V9.12725ZM9 17C4.85775 17 1.5 13.6423 1.5 9.5C1.5 5.35775 4.85775 2 9 2C13.1423 2 16.5 5.35775 16.5 9.5C16.5 13.6423 13.1423 17 9 17ZM9 16.1C10.7504 16.1 12.4292 15.4046 13.6669 14.1669C14.9046 12.9292 15.6 11.2504 15.6 9.5C15.6 7.74957 14.9046 6.07084 13.6669 4.8331C12.4292 3.59536 10.7504 2.9 9 2.9C7.24957 2.9 5.57084 3.59536 4.3331 4.8331C3.09536 6.07084 2.4 7.74957 2.4 9.5C2.4 11.2504 3.09536 12.9292 4.3331 14.1669C5.57084 15.4046 7.24957 16.1 9 16.1Z" fill="#868686"/>
</svg>
