<svg width="22" height="22" viewBox="0 0 22 22" fill="none" xmlns="http://www.w3.org/2000/svg">
<path d="M14.7895 21.1051L7.21053 18.4266L2.21095 20.3781C1.88758 20.4997 1.58737 20.4644 1.31032 20.2722C1.03326 20.08 0.894737 19.8096 0.894737 19.461V3.86247C0.894737 3.63459 0.949474 3.42669 1.05895 3.23878C1.16842 3.05086 1.32758 2.92035 1.53642 2.84722L7.21053 0.894531L14.7895 3.57294L19.7891 1.62153C20.1124 1.49994 20.4126 1.5229 20.6897 1.6904C20.9667 1.85791 21.1053 2.10789 21.1053 2.44036V18.2353C21.1053 18.4794 21.0383 18.6911 20.9044 18.8705C20.7714 19.0508 20.592 19.1775 20.3663 19.2506L14.7895 21.1051ZM14.1579 19.549V4.62645L7.84211 2.40082V17.3234L14.1579 19.549ZM15.4211 19.549L19.8421 18.0785V2.96456L15.4211 4.62773V19.549ZM2.1579 19.035L6.57895 17.3234V2.40082L2.1579 3.92114V19.035Z" fill="#008BCB"/>
</svg>
