<svg width="30" height="30" viewBox="0 0 30 30" fill="none" xmlns="http://www.w3.org/2000/svg">
<path d="M27.2138 2.81231L27.1979 2.79825L27.1876 2.78606C26.8153 2.41435 26.3107 2.20557 25.7846 2.20557C25.2585 2.20557 24.7539 2.41435 24.3816 2.78606L17.6438 9.52294L13.7532 8.71013L15.7426 6.71981C15.7997 6.65667 15.8303 6.57399 15.8282 6.48889C15.826 6.40378 15.7913 6.32275 15.7311 6.26255C15.6709 6.20235 15.5898 6.16759 15.5047 6.16545C15.4196 6.16331 15.3369 6.19396 15.2738 6.25106L12.9769 8.54794L9.11443 7.74075L11.041 5.81231C11.0981 5.74917 11.1287 5.66649 11.1266 5.58139C11.1245 5.49628 11.0897 5.41525 11.0295 5.35505C10.9693 5.29485 10.8883 5.26009 10.8032 5.25795C10.7181 5.25581 10.6354 5.28646 10.5722 5.34356L8.33724 7.57669L5.26224 6.93731C4.81558 6.84282 4.35234 6.86196 3.915 6.993C3.47767 7.12404 3.08022 7.36277 2.75912 7.68731L1.53287 8.90606C1.49458 8.94423 1.4662 8.99118 1.45019 9.04282C1.43418 9.09446 1.43103 9.14922 1.44101 9.20236C1.45099 9.25549 1.4738 9.30538 1.50745 9.34769C1.54111 9.39 1.58459 9.42345 1.63412 9.44513L12.8166 14.3436L8.64099 18.522L4.19537 19.0311C3.98637 19.0564 3.78708 19.1338 3.61576 19.2562C3.44443 19.3785 3.30655 19.5419 3.21474 19.7314L2.4863 21.4939C2.46668 21.5421 2.4585 21.5942 2.4624 21.6461C2.46631 21.6979 2.48219 21.7482 2.5088 21.7929C2.53578 21.8374 2.57282 21.8749 2.61695 21.9024C2.66108 21.93 2.71107 21.9467 2.76287 21.9514L6.33005 22.2889C6.40612 22.6113 6.56811 22.9071 6.7988 23.1448C6.80654 23.1536 6.81501 23.1618 6.82412 23.1692L6.83912 23.1861C7.07922 23.4222 7.37895 23.5888 7.7063 23.6679L8.0438 27.2351C8.04846 27.2869 8.06522 27.3369 8.09274 27.381C8.12026 27.4252 8.15777 27.4622 8.20224 27.4892C8.24696 27.5158 8.29724 27.5317 8.34913 27.5356C8.40102 27.5395 8.45311 27.5313 8.5013 27.5117L10.2891 26.772C10.4728 26.6785 10.6305 26.5411 10.7483 26.372C10.866 26.2029 10.9402 26.0073 10.9641 25.8026L11.4751 21.357L15.6563 17.1833L20.5585 28.3657C20.5803 28.4152 20.6138 28.4586 20.6561 28.4922C20.6984 28.5259 20.7482 28.5487 20.8013 28.5589C20.8217 28.5626 20.8424 28.5645 20.8632 28.5645C20.9506 28.5653 21.0348 28.5317 21.0976 28.4707L22.3238 27.2445C22.6477 26.923 22.886 26.5255 23.017 26.0883C23.148 25.6511 23.1675 25.1881 23.0738 24.7414L22.4307 21.6664L24.6563 19.4286C24.7134 19.3654 24.7441 19.2827 24.7419 19.1976C24.7398 19.1125 24.705 19.0315 24.6448 18.9713C24.5846 18.9111 24.5036 18.8763 24.4185 18.8742C24.3334 18.8721 24.2507 18.9027 24.1876 18.9598L22.261 20.8873L21.4538 17.0248L23.7507 14.7279C23.8078 14.6648 23.8384 14.5821 23.8363 14.497C23.8342 14.4119 23.7994 14.3309 23.7392 14.2707C23.679 14.2105 23.598 14.1757 23.5129 14.1736C23.4277 14.1714 23.3451 14.2021 23.2819 14.2592L21.2897 16.2467L20.4769 12.3598L27.2138 5.62481C27.399 5.44041 27.5459 5.22126 27.6461 4.97994C27.7464 4.73862 27.798 4.47988 27.798 4.21856C27.798 3.95725 27.7464 3.69851 27.6461 3.45718C27.5459 3.21586 27.399 2.99671 27.2138 2.81231ZM26.7451 5.14856L19.8816 12.0129C19.842 12.0516 19.8126 12.0995 19.7963 12.1524C19.7799 12.2053 19.777 12.2615 19.7879 12.3158L22.4129 24.8698C22.4847 25.2079 22.4708 25.5586 22.3726 25.89C22.2743 26.2214 22.0948 26.523 21.8504 26.7673L20.9682 27.6504L16.066 16.4717C16.0445 16.422 16.0111 16.3784 15.9688 16.3447C15.9264 16.311 15.8764 16.2883 15.8232 16.2786C15.8029 16.2741 15.7821 16.2719 15.7613 16.272C15.674 16.2716 15.5899 16.3052 15.5269 16.3658L10.9257 20.967C10.8734 21.0204 10.8405 21.0897 10.8319 21.1639L10.3079 25.7248C10.2975 25.8166 10.2655 25.9045 10.2145 25.9815C10.1635 26.0584 10.0949 26.1221 10.0144 26.1673L8.6663 26.7242L8.3438 23.3614C8.33703 23.2875 8.30562 23.218 8.25461 23.1641C8.2036 23.1102 8.13596 23.075 8.06255 23.0642C7.79022 23.0339 7.53419 22.9192 7.33037 22.7361C7.31974 22.7229 7.30943 22.7107 7.29943 22.6995C7.28775 22.6882 7.27521 22.6779 7.26193 22.6686C7.07976 22.4649 6.96627 22.2091 6.93755 21.9373C6.92672 21.8639 6.89153 21.7963 6.83763 21.7453C6.78374 21.6942 6.71426 21.6628 6.64037 21.6561L3.2738 21.3373L3.81943 20.0145C3.863 19.9281 3.9272 19.8539 4.00636 19.7983C4.08551 19.7427 4.17716 19.7074 4.27318 19.6958L8.83412 19.1717C8.90833 19.1632 8.97759 19.1302 9.03099 19.0779L13.6322 14.4767C13.6703 14.4384 13.6984 14.3913 13.7142 14.3397C13.7301 14.288 13.7331 14.2333 13.723 14.1803C13.7129 14.1272 13.6901 14.0774 13.6565 14.0351C13.6229 13.9928 13.5795 13.9594 13.5301 13.9376L2.3438 9.03169L3.22693 8.1495C3.47147 7.90532 3.77306 7.726 4.10439 7.62778C4.43572 7.52956 4.78632 7.51554 5.12443 7.587L17.6785 10.212C17.7328 10.2234 17.7891 10.2208 17.842 10.2044C17.895 10.188 17.943 10.1583 17.9813 10.1183L24.8438 3.25575C25.0883 3.01224 25.4182 2.87389 25.7632 2.87022C26.1083 2.86654 26.4411 2.99782 26.6907 3.23606C26.7099 3.26278 26.7333 3.28621 26.7601 3.30544C27.0001 3.55461 27.133 3.888 27.13 4.234C27.127 4.58001 26.9885 4.91106 26.7441 5.15606L26.7451 5.14856Z" fill="#909090" stroke="#909090"/>
</svg>
