<svg width="30" height="30" viewBox="0 0 30 30" fill="none" xmlns="http://www.w3.org/2000/svg">
<path d="M12.528 25.5773L9.75281 20.4193L9.68166 20.2871L9.54941 20.2159L4.39581 17.4431L5.94939 15.9114L10.2275 16.649L10.4829 16.693L10.6661 16.5098L13.8536 13.3223L14.3771 12.7988L13.6959 12.5087L4.46224 8.57641L6.39188 6.60082L18.163 8.67988L18.4194 8.72517L18.6036 8.54105L22.4786 4.66605C22.8593 4.28528 23.3238 4.09375 23.9062 4.09375C24.4887 4.09375 24.9532 4.28528 25.3339 4.66605C25.7163 5.04842 25.9062 5.50826 25.9062 6.0775C25.9062 6.6466 25.7164 7.10694 25.3339 7.4902L12.528 25.5773ZM12.528 25.5773L14.0865 24.0189L13.3205 19.7763L13.274 19.5189L13.4589 19.3339L16.6464 16.1464L17.1684 15.6245L17.4595 16.3029L21.4184 25.5307L23.3685 23.5807L21.2889 11.8372L21.2435 11.5807L21.4277 11.3964L25.3336 7.4905L12.528 25.5773Z" fill="#008BCB" stroke="#008BCB"/>
</svg>
