<svg width="24" height="24" viewBox="0 0 24 24" fill="none" xmlns="http://www.w3.org/2000/svg">
<path fill-rule="evenodd" clip-rule="evenodd" d="M13.869 6.09675C13.7621 6.09675 13.6593 6.05309 13.5827 5.9724C13.5189 5.90517 13.4792 5.82592 13.4066 5.68204C13.2789 5.42804 13.041 4.95422 12.5491 4.33123C12.3455 4.07318 12.2635 3.98514 12.2057 3.92805C12.1607 3.88371 12.0458 3.77618 11.8804 3.65452C11.7554 3.80172 11.6123 3.92603 11.4523 4.02548C10.9772 4.32185 10.5101 4.31041 10.1345 4.3017L10.1083 4.30103C10.0968 4.30103 8.95033 4.27482 7.72656 4.3595C6.86029 4.41932 6.60628 4.52479 6.4208 4.62697C6.25211 4.72036 5.93828 4.89377 5.79377 5.215C5.73126 5.35345 5.71313 5.48916 5.69769 5.59803C5.68961 5.65853 5.68221 5.71094 5.66812 5.76332C5.60695 5.9878 5.43489 6.08051 5.29446 6.09192C5.20978 6.09932 4.99809 6.0872 4.8543 5.82377C4.81804 5.75726 4.78304 5.67056 4.75082 5.56707C4.69167 5.3789 4.64396 5.14365 4.61977 4.92124C4.52907 4.09796 4.74745 3.42327 4.88522 3.09463C4.97458 2.8816 5.24344 2.32786 5.80522 1.78416C6.7783 0.84398 7.94094 0.602719 8.71045 0.442775C9.35225 0.309713 9.80116 0.290236 10.3657 0.277489C10.8052 0.267392 11.3247 0.286239 11.8502 0.503942C12.119 0.614792 12.3152 0.747223 12.4685 0.920629C12.5854 1.05369 12.6324 1.15789 12.6868 1.27817C12.7151 1.34001 12.7467 1.41056 12.7977 1.50866C12.9254 1.75127 13.0026 1.89842 13.1303 2.03081C13.1881 2.09063 13.2103 2.10342 13.2923 2.15176C13.3797 2.2035 13.4993 2.27342 13.6982 2.42259C13.9428 2.60605 14.1048 2.72771 14.2795 2.93806C14.3911 3.07314 14.6243 3.35403 14.7164 3.77139C14.7755 4.03751 14.748 4.24718 14.7022 4.59466C14.6727 4.81914 14.5208 5.23107 14.4744 5.35139C14.2782 5.86685 14.1787 6.01602 13.9919 6.07652C13.9523 6.09006 13.91 6.09675 13.869 6.09675ZM11.7884 2.77491C11.9745 2.77491 12.1358 2.88783 12.238 2.95909L12.2487 2.96649C12.4926 3.13582 12.666 3.29509 12.7473 3.3751C12.8353 3.46113 12.9389 3.57539 13.1573 3.85161C13.4637 4.24003 13.6808 4.5754 13.8367 4.84421C13.8878 4.69567 13.9274 4.5613 13.9361 4.49408C13.9778 4.17352 13.9899 4.06599 13.9617 3.93831C13.9099 3.70374 13.7742 3.54047 13.6848 3.43227C13.5685 3.29181 13.457 3.20851 13.2352 3.0418C13.0713 2.91879 12.9772 2.86301 12.9013 2.81867C12.8005 2.75952 12.7057 2.70378 12.5746 2.56735C12.3703 2.35566 12.2574 2.14061 12.1143 1.86843C12.0518 1.74946 12.0121 1.66078 11.9826 1.59625C11.9376 1.4968 11.9281 1.47665 11.8892 1.43231C11.8401 1.37652 11.7581 1.30257 11.5558 1.2186C11.164 1.05664 10.7615 1.0425 10.3844 1.05062C9.84478 1.06269 9.44761 1.08019 8.86897 1.19979C8.14585 1.34968 7.15594 1.55531 6.34415 2.34022C5.8724 2.79654 5.65465 3.26156 5.59954 3.39332C5.51217 3.60097 5.38516 3.98202 5.37372 4.45849C5.43893 4.38525 5.51082 4.31533 5.59012 4.25017C5.76685 4.10368 5.9416 4.00688 6.04644 3.94908C6.37369 3.7676 6.74536 3.65069 7.67347 3.5862C8.93484 3.49883 10.0794 3.52503 10.1271 3.52638L10.154 3.52705C10.4678 3.53446 10.7649 3.54182 11.0424 3.36846C11.1876 3.27776 11.3119 3.14873 11.4114 2.98471C11.4739 2.88122 11.5734 2.80996 11.6923 2.78442C11.7252 2.77757 11.7568 2.77491 11.7884 2.77491Z" fill="black"/>
<path fill-rule="evenodd" clip-rule="evenodd" d="M9.68008 12.5422C9.41998 12.5422 9.12432 12.5173 8.80578 12.4467C8.5222 12.3842 7.78365 12.1745 7.05847 11.5804C6.71103 11.2955 6.07328 10.6671 5.71103 9.65909C5.61225 9.38422 5.54772 9.08856 5.51074 8.88625C5.25736 8.77267 5.02485 8.60133 4.82793 8.38156C4.57661 8.10067 4.40119 7.76063 4.32122 7.39838C4.15858 6.66185 4.40859 5.9387 5.00735 5.41587C5.16864 5.27541 5.41327 5.29152 5.55369 5.45285C5.69416 5.61414 5.67804 5.85877 5.51671 5.99919C4.99721 6.45281 5.01808 6.96626 5.07718 7.23171C5.18202 7.70615 5.53884 8.10807 5.96495 8.23171C6.11215 8.27471 6.2203 8.39969 6.24045 8.5516C6.27003 8.76867 6.33923 9.12078 6.4394 9.39835C6.7499 10.2626 7.31909 10.7942 7.5489 10.983C8.14501 11.4709 8.74314 11.6416 8.97229 11.6927C9.62552 11.8365 10.1638 11.7417 10.3654 11.694C10.9152 11.5643 11.2854 11.3089 11.444 11.2001C11.5583 11.1214 11.8567 10.8996 12.1604 10.5401C12.5992 10.0206 12.9225 9.31426 13.0972 8.49641C13.1302 8.34117 13.2552 8.22153 13.4118 8.19532C13.5825 8.16642 13.7687 8.01923 13.9219 7.79214C14.0885 7.54415 14.1967 7.23234 14.2182 6.93731C14.2411 6.62147 14.1779 6.21555 13.7451 6.07643C13.5415 6.01122 13.43 5.79285 13.4952 5.58919C13.5604 5.38558 13.7788 5.27402 13.9824 5.33922C14.3493 5.45752 14.6349 5.69205 14.8077 6.01863C14.9535 6.2935 15.0167 6.63017 14.9905 6.99242C14.9596 7.41782 14.8043 7.86673 14.5644 8.22359C14.3527 8.53814 14.0886 8.76527 13.803 8.88285C13.5913 9.73969 13.2385 10.4642 12.7526 11.0394C12.4018 11.4547 12.0577 11.7174 11.8837 11.8371C11.7062 11.9588 11.2351 12.2833 10.5443 12.4466C10.3581 12.4897 10.0564 12.5422 9.68008 12.5422Z" fill="black"/>
<path fill-rule="evenodd" clip-rule="evenodd" d="M7.36529 14.0255C7.30748 14.0255 7.24901 14.0127 7.19327 13.9852C7.00173 13.8904 6.92311 13.6579 7.01852 13.4664C7.13749 13.2265 7.33908 12.7453 7.35321 12.2164C7.3586 12.0087 7.33172 11.914 7.28733 11.756C7.27526 11.7137 7.2618 11.6653 7.24766 11.6122C7.19457 11.4053 7.31956 11.1942 7.52658 11.1411C7.73355 11.088 7.94461 11.213 7.9977 11.42C8.00914 11.463 8.02054 11.5047 8.03199 11.545C8.08306 11.7252 8.13615 11.9113 8.12744 12.2365C8.10998 12.914 7.85997 13.5134 7.71281 13.8098C7.64487 13.9469 7.50773 14.0255 7.36529 14.0255Z" fill="black"/>
<path fill-rule="evenodd" clip-rule="evenodd" d="M12.0562 14.2789C11.9245 14.2789 11.7969 14.2116 11.7242 14.0914C11.4689 13.6666 11.1604 13 11.1402 12.2365C11.1315 11.9106 11.1846 11.7245 11.2357 11.545C11.2471 11.5047 11.2585 11.4637 11.27 11.42C11.323 11.2131 11.5341 11.088 11.7411 11.1411C11.9481 11.1942 12.0731 11.4052 12.02 11.6122C12.0066 11.6647 11.9924 11.713 11.9803 11.756C11.936 11.9133 11.9084 12.0087 11.9144 12.2164C11.9299 12.8118 12.1806 13.3481 12.3875 13.6928C12.4978 13.8763 12.4386 14.1142 12.2551 14.2238C12.1927 14.2608 12.1241 14.2789 12.0562 14.2789Z" fill="black"/>
<path fill-rule="evenodd" clip-rule="evenodd" d="M19.3655 23.7224H0.387243C0.174209 23.7224 0.000803408 23.5496 0.000172384 23.3366C-0.00386617 21.9872 0.0579742 18.6143 0.730688 16.4449C0.909478 15.8697 1.12584 15.3999 1.41144 14.9671C1.65135 14.6042 2.34359 13.6916 3.5801 13.0632C4.71317 12.4867 5.79718 12.4013 6.50683 12.4309C6.59959 12.4349 6.68831 12.4719 6.7555 12.5357L9.79514 15.3898L13.0028 12.5296C13.0693 12.4698 13.1546 12.4355 13.2447 12.4315C13.9543 12.4019 15.0377 12.4879 16.1714 13.0639C17.408 13.6929 18.1002 14.6049 18.3401 14.9678C18.6264 15.4006 18.8428 15.8697 19.0208 16.4456C19.33 17.4409 19.5451 18.8024 19.6606 20.4905C19.7231 21.4018 19.7547 22.3857 19.7513 23.3366C19.752 23.5504 19.5786 23.7224 19.3655 23.7224ZM9.8529 22.9482H18.9778C18.9724 22.1377 18.9422 21.3138 18.8891 20.5437C18.7775 18.9147 18.5732 17.6129 18.2822 16.6748C18.1236 16.1647 17.9428 15.7695 17.6949 15.3945C17.4885 15.0826 16.8931 14.2984 15.8205 13.7534C14.9066 13.2883 14.0282 13.1909 13.4133 13.2003L10.0464 16.2023C9.89653 16.3354 9.67007 16.3327 9.52355 16.1956L6.33338 13.1996C5.71915 13.1915 4.84349 13.289 3.9315 13.7527C2.85892 14.2977 2.26353 15.082 2.05719 15.3938C1.80919 15.7688 1.62843 16.1633 1.46983 16.6733C1.17884 17.6115 0.974516 18.9133 0.862951 20.5423C0.809861 21.3125 0.779613 22.1364 0.774229 22.9468L9.8529 22.9482Z" fill="black"/>
<path fill-rule="evenodd" clip-rule="evenodd" d="M4.06031 23.7228C3.8466 23.7228 3.67324 23.5494 3.67324 23.3358V18.8714C3.67324 18.6577 3.84665 18.4844 4.06031 18.4844C4.27398 18.4844 4.44738 18.6577 4.44738 18.8714V23.3358C4.44747 23.5495 4.27406 23.7228 4.06031 23.7228Z" fill="black"/>
<path fill-rule="evenodd" clip-rule="evenodd" d="M16.0041 23.7228C15.7904 23.7228 15.617 23.5494 15.617 23.3358V18.8714C15.617 18.6577 15.7904 18.4844 16.0041 18.4844C16.2178 18.4844 16.3911 18.6577 16.3911 18.8714V23.3358C16.3912 23.5495 16.2178 23.7228 16.0041 23.7228Z" fill="black"/>
<path fill-rule="evenodd" clip-rule="evenodd" d="M17.5609 12.5507C17.3472 12.5507 17.1738 12.3773 17.1738 12.1636V1.1859C17.1738 0.972192 17.3472 0.798828 17.5609 0.798828C17.7746 0.798828 17.948 0.972234 17.948 1.1859V12.1636C17.948 12.3773 17.7746 12.5507 17.5609 12.5507Z" fill="black"/>
<path fill-rule="evenodd" clip-rule="evenodd" d="M23.6128 7.19279H17.5612C17.3475 7.19279 17.1741 7.01942 17.1741 6.80572V2.13908C17.1741 1.99125 17.2581 1.85685 17.3905 1.79164C17.5229 1.72643 17.6808 1.74259 17.7977 1.83266L23.8494 6.49925C23.9805 6.60005 24.0329 6.77412 23.9792 6.9307C23.926 7.08732 23.7782 7.19279 23.6128 7.19279ZM17.9483 6.4186H22.4771L17.9483 2.92673V6.4186Z" fill="black"/>
<path fill-rule="evenodd" clip-rule="evenodd" d="M11.7911 22.3213H7.76421C7.55051 22.3213 7.37714 22.1479 7.37714 21.9342V17.1957C7.37714 16.982 7.55051 16.8086 7.76421 16.8086H11.7911C12.0048 16.8086 12.1781 16.982 12.1781 17.1957V21.9342C12.1781 22.1485 12.0055 22.3213 11.7911 22.3213ZM8.152 21.5471H11.4046V17.5827H8.152V21.5471Z" fill="black"/>
<path fill-rule="evenodd" clip-rule="evenodd" d="M10.4826 18.8073H9.07333C8.85962 18.8073 8.68626 18.634 8.68626 18.4203C8.68626 18.2066 8.85962 18.0332 9.07333 18.0332H10.4826C10.6963 18.0332 10.8697 18.2066 10.8697 18.4203C10.8697 18.634 10.6963 18.8073 10.4826 18.8073Z" fill="black"/>
<path fill-rule="evenodd" clip-rule="evenodd" d="M10.4826 19.9499H9.07333C8.85962 19.9499 8.68626 19.7766 8.68626 19.5629C8.68626 19.3491 8.85962 19.1758 9.07333 19.1758H10.4826C10.6963 19.1758 10.8697 19.3491 10.8697 19.5629C10.8697 19.7766 10.6963 19.9499 10.4826 19.9499Z" fill="black"/>
<path fill-rule="evenodd" clip-rule="evenodd" d="M10.4826 21.0945H9.07333C8.85962 21.0945 8.68626 20.9211 8.68626 20.7074C8.68626 20.4937 8.85962 20.3203 9.07333 20.3203H10.4826C10.6963 20.3203 10.8697 20.4937 10.8697 20.7074C10.8697 20.9211 10.6963 21.0945 10.4826 21.0945Z" fill="black"/>
<path fill-rule="evenodd" clip-rule="evenodd" d="M7.76505 17.5814C7.63334 17.5814 7.50495 17.5141 7.43242 17.3932L4.86524 13.1116C4.75503 12.9282 4.81485 12.6903 4.99831 12.5807C5.18177 12.4704 5.41966 12.5303 5.52925 12.7137L8.09643 16.9953C8.20664 17.1787 8.14682 17.4166 7.96336 17.5262C7.90148 17.5639 7.83291 17.5814 7.76505 17.5814Z" fill="black"/>
<path fill-rule="evenodd" clip-rule="evenodd" d="M11.7911 17.581C11.7232 17.581 11.6547 17.5635 11.5922 17.5259C11.4087 17.4157 11.3495 17.1784 11.4591 16.995L14.0263 12.7134C14.1365 12.53 14.3737 12.4708 14.5572 12.5804C14.7407 12.6906 14.7998 12.9278 14.6903 13.1113L12.1231 17.3929C12.0512 17.5138 11.9228 17.581 11.7911 17.581Z" fill="black"/>
</svg>
