<svg width="19" height="14" viewBox="0 0 19 14" fill="none" xmlns="http://www.w3.org/2000/svg">
<path d="M17.4534 5.89297C17.7067 6.24797 17.8334 6.4263 17.8334 6.6888C17.8334 6.95214 17.7067 7.12964 17.4534 7.48464C16.3151 9.0813 13.4076 12.5221 9.50008 12.5221C5.59175 12.5221 2.68508 9.08047 1.54675 7.48464C1.29341 7.12964 1.16675 6.9513 1.16675 6.6888C1.16675 6.42547 1.29341 6.24797 1.54675 5.89297C2.68508 4.2963 5.59258 0.855469 9.50008 0.855469C13.4084 0.855469 16.3151 4.29714 17.4534 5.89297Z" stroke="#606060" stroke-width="1.25" stroke-linecap="round" stroke-linejoin="round"/>
<path d="M12 6.68945C12 6.02641 11.7366 5.39053 11.2678 4.92169C10.7989 4.45284 10.163 4.18945 9.5 4.18945C8.83696 4.18945 8.20107 4.45284 7.73223 4.92169C7.26339 5.39053 7 6.02641 7 6.68945C7 7.35249 7.26339 7.98838 7.73223 8.45722C8.20107 8.92606 8.83696 9.18945 9.5 9.18945C10.163 9.18945 10.7989 8.92606 11.2678 8.45722C11.7366 7.98838 12 7.35249 12 6.68945Z" stroke="#606060" stroke-width="1.25" stroke-linecap="round" stroke-linejoin="round"/>
</svg>
