<svg width="12" height="15" viewBox="0 0 12 15" fill="none" xmlns="http://www.w3.org/2000/svg">
<path d="M6.37333 13.38C6.26453 13.4581 6.13395 13.5002 6 13.5002C5.86604 13.5002 5.73547 13.4581 5.62666 13.38C2.40733 11.0853 -1.00933 6.36533 2.44467 2.95467C3.39289 2.0219 4.66989 1.49942 6 1.5C7.33333 1.5 8.61267 2.02333 9.55533 2.954C13.0093 6.36467 9.59267 11.084 6.37333 13.38Z" stroke="#008BCB" stroke-width="1.5" stroke-linecap="round" stroke-linejoin="round"/>
<path d="M6 7.50065C6.35362 7.50065 6.69276 7.36018 6.94281 7.11013C7.19285 6.86008 7.33333 6.52094 7.33333 6.16732C7.33333 5.8137 7.19285 5.47456 6.94281 5.22451C6.69276 4.97446 6.35362 4.83398 6 4.83398C5.64638 4.83398 5.30724 4.97446 5.05719 5.22451C4.80714 5.47456 4.66666 5.8137 4.66666 6.16732C4.66666 6.52094 4.80714 6.86008 5.05719 7.11013C5.30724 7.36018 5.64638 7.50065 6 7.50065Z" stroke="#008BCB" stroke-width="1.5" stroke-linecap="round" stroke-linejoin="round"/>
</svg>
