<svg width="24" height="24" viewBox="0 0 24 24" fill="none" xmlns="http://www.w3.org/2000/svg">
<path d="M12.001 4.52906C13.1438 3.50672 14.6346 2.96069 16.1674 3.00309C17.7001 3.04549 19.1585 3.6731 20.243 4.75706C21.3264 5.84025 21.9543 7.29681 21.9982 8.82815C22.0421 10.3595 21.4986 11.8496 20.479 12.9931L11.999 21.4851L3.52102 12.9931C2.50028 11.849 1.95623 10.3576 2.00056 8.82505C2.04489 7.29247 2.67425 5.83501 3.75942 4.75189C4.84459 3.66877 6.30323 3.04217 7.83589 3.00073C9.36854 2.95929 10.8589 3.50616 12.001 4.52906ZM18.827 6.17006C18.1044 5.44863 17.1332 5.03089 16.1124 5.00244C15.0917 4.974 14.0987 5.337 13.337 6.01706L12.002 7.21506L10.666 6.01806C9.90769 5.33995 8.91949 4.97626 7.90249 5.00098C6.88549 5.02571 5.91612 5.437 5.19164 6.15116C4.46716 6.86532 4.04201 7.82868 4.0027 8.84522C3.96338 9.86176 4.31286 10.8551 4.98002 11.6231L12 18.6541L19.02 11.6241C19.6844 10.8595 20.0339 9.87131 19.9981 8.85904C19.9623 7.84677 19.5438 6.88578 18.827 6.17006Z" fill="#868686"/>
</svg>
