<svg width="24" height="24" viewBox="0 0 24 24" fill="none" xmlns="http://www.w3.org/2000/svg">
<path d="M12 10C14.2091 10 16 8.20914 16 6C16 3.79086 14.2091 2 12 2C9.79086 2 8 3.79086 8 6C8 8.20914 9.79086 10 12 10Z" stroke="black" stroke-width="1.5"/>
<path d="M15 13.327C14.0152 13.1071 13.009 12.9974 12 13C7.582 13 4 15.015 4 17.5C4 19.985 4 22 12 22C17.687 22 19.331 20.982 19.807 19.5" stroke="black" stroke-width="1.5"/>
<path d="M20.8291 13.1706C21.2006 13.5421 21.4952 13.983 21.6962 14.4684C21.8973 14.9537 22.0007 15.4738 22.0007 15.9991C22.0007 16.5244 21.8973 17.0446 21.6962 17.5299C21.4952 18.0152 21.2006 18.4562 20.8291 18.8276C20.4577 19.1991 20.0167 19.4937 19.5314 19.6947C19.0461 19.8958 18.5259 19.9992 18.0006 19.9992C17.4753 19.9992 16.9552 19.8958 16.4698 19.6947C15.9845 19.4937 15.5436 19.1991 15.1721 18.8276L20.8281 13.1716M15.1711 18.8276C14.4209 18.0775 13.9995 17.06 13.9995 15.9991C13.9995 15.4738 14.103 14.9537 14.304 14.4684C14.505 13.983 14.7997 13.5421 15.1711 13.1706C15.5426 12.7992 15.9835 12.5045 16.4688 12.3035C16.9542 12.1025 17.4743 11.999 17.9996 11.999C19.0605 11.999 20.0779 12.4205 20.8281 13.1706" stroke="black" stroke-width="1.5" stroke-linejoin="round"/>
</svg>
