<svg width="24" height="25" viewBox="0 0 24 25" fill="none" xmlns="http://www.w3.org/2000/svg">
<path d="M15.75 20H3C2.60218 20 2.22064 19.842 1.93934 19.5607C1.65804 19.2794 1.5 18.8978 1.5 18.5V6.5C1.5 6.10218 1.65804 5.72064 1.93934 5.43934C2.22064 5.15804 2.60218 5 3 5H15.75C16.1478 5 16.5294 5.15804 16.8107 5.43934C17.092 5.72064 17.25 6.10218 17.25 6.5V9.545L21.315 6.6425C21.4269 6.5628 21.5586 6.51538 21.6957 6.50543C21.8327 6.49547 21.9699 6.52336 22.0922 6.58605C22.2144 6.64874 22.3171 6.74382 22.3891 6.8609C22.461 6.97799 22.4994 7.11259 22.5 7.25V17.75C22.4994 17.8874 22.461 18.022 22.3891 18.1391C22.3171 18.2562 22.2144 18.3513 22.0922 18.414C21.9699 18.4766 21.8327 18.5045 21.6957 18.4946C21.5586 18.4846 21.4269 18.4372 21.315 18.3575L17.25 15.455V18.5C17.25 18.8978 17.092 19.2794 16.8107 19.5607C16.5294 19.842 16.1478 20 15.75 20ZM3 6.5V18.5H15.75V14C15.7506 13.8626 15.789 13.728 15.8609 13.6109C15.9329 13.4938 16.0356 13.3987 16.1578 13.3361C16.2801 13.2734 16.4173 13.2455 16.5543 13.2554C16.6914 13.2654 16.8231 13.3128 16.935 13.3925L21 16.295V8.705L16.935 11.6075C16.8231 11.6872 16.6914 11.7346 16.5543 11.7446C16.4173 11.7545 16.2801 11.7266 16.1578 11.664C16.0356 11.6013 15.9329 11.5062 15.8609 11.3891C15.789 11.272 15.7506 11.1374 15.75 11V6.5H3Z" fill="#98F3FF"/>
</svg>
