<svg width="24" height="24" viewBox="0 0 24 24" fill="none" xmlns="http://www.w3.org/2000/svg">
<path d="M3.27991 2.22015C3.21125 2.14647 3.12845 2.08736 3.03645 2.04637C2.94445 2.00538 2.84513 1.98334 2.74443 1.98156C2.64373 1.97979 2.5437 1.99831 2.45031 2.03603C2.35692 2.07375 2.27209 2.1299 2.20087 2.20112C2.12965 2.27233 2.07351 2.35717 2.03579 2.45056C1.99807 2.54394 1.97954 2.64397 1.98132 2.74468C1.98309 2.84538 2.00514 2.94469 2.04613 3.03669C2.08712 3.12869 2.14622 3.21149 2.21991 3.28015L4.13491 5.19615C3.50881 5.42483 2.96817 5.84049 2.58626 6.38679C2.20435 6.93309 1.99965 7.5836 1.99991 8.25015V15.7502C1.99991 16.6121 2.34232 17.4388 2.95181 18.0483C3.56131 18.6577 4.38796 19.0002 5.24991 19.0002H12.7499C14.1529 19.0002 15.3489 18.1102 15.8039 16.8652L20.7189 21.7812C20.8596 21.9219 21.0504 22.0009 21.2494 22.0009C21.4484 22.0009 21.6392 21.9219 21.7799 21.7812C21.9206 21.6405 21.9997 21.4496 21.9997 21.2507C21.9997 21.0517 21.9206 20.8609 21.7799 20.7202L3.27991 2.22015ZM14.4999 15.5602V15.7502C14.4999 16.2143 14.3155 16.6594 13.9873 16.9876C13.6592 17.3158 13.214 17.5002 12.7499 17.5002H5.24991C4.78578 17.5002 4.34066 17.3158 4.01247 16.9876C3.68428 16.6594 3.49991 16.2143 3.49991 15.7502V8.25015C3.49991 7.28415 4.28391 6.50015 5.24991 6.50015H5.43991L14.4999 15.5602ZM14.4999 8.25015V11.3182L15.9999 12.8182V10.3842L20.1099 7.54615C20.1475 7.52025 20.1914 7.5051 20.2369 7.50236C20.2824 7.49962 20.3278 7.50939 20.3682 7.53061C20.4086 7.55183 20.4424 7.58369 20.466 7.62274C20.4895 7.66179 20.502 7.70654 20.5019 7.75215V16.2472C20.502 16.2928 20.4895 16.3375 20.466 16.3766C20.4424 16.4156 20.4086 16.4475 20.3682 16.4687C20.3278 16.4899 20.2824 16.4997 20.2369 16.4969C20.1914 16.4942 20.1475 16.4791 20.1099 16.4532L18.5749 15.3932L21.0069 17.8262C21.5769 17.5522 22.0019 16.9772 22.0019 16.2472V7.75215C22.0019 6.34215 20.4179 5.51015 19.2579 6.31215L15.9999 8.56215V8.25015C15.9999 7.3882 15.6575 6.56155 15.048 5.95206C14.4385 5.34256 13.6119 5.00015 12.7499 5.00015H8.18191L9.68191 6.50015H12.7499C13.7159 6.50015 14.4999 7.28415 14.4999 8.25015Z" fill="black"/>
</svg>
