<svg width="30" height="30" viewBox="0 0 30 30" fill="none" xmlns="http://www.w3.org/2000/svg">
<g clip-path="url(#clip0_5104_5833)">
<path d="M28.125 14.2313V7.5C28.125 7.25136 28.0262 7.0129 27.8504 6.83709C27.6746 6.66127 27.4361 6.5625 27.1875 6.5625H26.25V3.75C26.25 3.25272 26.0525 2.77581 25.7008 2.42417C25.3492 2.07254 24.8723 1.875 24.375 1.875H1.875C1.37772 1.875 0.900806 2.07254 0.549175 2.42417C0.197544 2.77581 0 3.25272 0 3.75L0 28.125C0 28.3736 0.0987721 28.6121 0.274587 28.7879C0.450403 28.9637 0.68886 29.0625 0.9375 29.0625H27.1875C27.4361 29.0625 27.6746 28.9637 27.8504 28.7879C28.0262 28.6121 28.125 28.3736 28.125 28.125V21.3937C28.6721 21.2003 29.1459 20.8424 29.4816 20.3691C29.8173 19.8958 29.9984 19.3303 30 18.75V16.875C29.9984 16.2947 29.8173 15.7292 29.4816 15.2559C29.1459 14.7826 28.6721 14.4247 28.125 14.2313ZM1.875 3.75H24.375V6.5625H1.875V3.75ZM26.25 27.1875H1.875V8.4375H26.25V14.0625H19.6875C18.9416 14.0625 18.2262 14.3588 17.6988 14.8863C17.1713 15.4137 16.875 16.1291 16.875 16.875V18.75C16.875 19.4959 17.1713 20.2113 17.6988 20.7387C18.2262 21.2662 18.9416 21.5625 19.6875 21.5625H26.25V27.1875ZM28.125 18.75C28.125 18.9986 28.0262 19.2371 27.8504 19.4129C27.6746 19.5887 27.4361 19.6875 27.1875 19.6875H19.6875C19.4389 19.6875 19.2004 19.5887 19.0246 19.4129C18.8488 19.2371 18.75 18.9986 18.75 18.75V16.875C18.75 16.6264 18.8488 16.3879 19.0246 16.2121C19.2004 16.0363 19.4389 15.9375 19.6875 15.9375H27.1875C27.4361 15.9375 27.6746 16.0363 27.8504 16.2121C28.0262 16.3879 28.125 16.6264 28.125 16.875V18.75Z" fill="#909090"/>
<path d="M21.5625 16.875H19.6875V18.75H21.5625V16.875Z" fill="#909090"/>
</g>
<defs>
<clipPath id="clip0_5104_5833">
<rect width="30" height="30" fill="white"/>
</clipPath>
</defs>
</svg>
