<svg width="30" height="30" viewBox="0 0 30 30" fill="none" xmlns="http://www.w3.org/2000/svg">
<path d="M2.5 12.5V10C2.5 8.82125 2.5 8.2325 2.86625 7.86625C3.2325 7.5 3.82125 7.5 5 7.5H8.75C13.4637 7.5 15.8212 7.5 17.285 8.965C18.7488 10.43 18.75 12.7863 18.75 17.5V20C18.75 21.1788 18.75 21.7675 18.3837 22.1338C18.0175 22.5 17.4288 22.5 16.25 22.5H12.5C7.78625 22.5 5.42875 22.5 3.965 21.035C2.50125 19.57 2.5 17.2137 2.5 12.5ZM22.375 11.3375L23.25 10.4938C25.0625 8.74625 25.9675 7.8725 26.7337 8.18875C27.5 8.505 27.5 9.75375 27.5 12.25V17.75C27.5 20.2463 27.5 21.495 26.7337 21.8112C25.9675 22.1275 25.0613 21.2537 23.25 19.5062L22.375 18.6625C21.265 17.5925 21.25 17.5562 21.25 16.0287V13.9713C21.25 12.4437 21.265 12.4087 22.375 11.3375Z" fill="#008BCB" stroke="#008BCB" stroke-width="1.5" stroke-linecap="round" stroke-linejoin="round"/>
</svg>
